<svg id="Layer_1" data-name="Layer 1" xmlns="http://www.w3.org/2000/svg" xmlns:xlink="http://www.w3.org/1999/xlink" viewBox="0 0 88.91 34.18"><defs><style>.cls-1{fill:none;}.cls-2{fill:#333;}.cls-2,.cls-3{fill-rule:evenodd;}.cls-3{fill:#689f63;}.cls-4{clip-path:url(#clip-path);}.cls-5{fill:url(#linear-gradient);}.cls-6{clip-path:url(#clip-path-2);}.cls-7{fill:url(#linear-gradient-2);}.cls-8{clip-path:url(#clip-path-3);}.cls-9{fill:url(#linear-gradient-3);}</style><clipPath id="clip-path"><path class="cls-1" d="M32.3,12.51,23.84,17.4a1,1,0,0,0-.52.89v9.78a1,1,0,0,0,.52.88l8.46,4.9a1,1,0,0,0,1,0L41.79,29a1,1,0,0,0,.51-.88V18.29a1,1,0,0,0-.51-.89l-8.46-4.89a1.09,1.09,0,0,0-1,0"/></clipPath><linearGradient id="linear-gradient" x1="-129.64" y1="35.36" x2="-129.4" y2="35.36" gradientTransform="matrix(-50.75, 103.54, 103.54, 50.75, -10201.6, 11638.43)" gradientUnits="userSpaceOnUse"><stop offset="0.3" stop-color="#3e863d"/><stop offset="0.5" stop-color="#55934f"/><stop offset="0.8" stop-color="#5aad45"/></linearGradient><clipPath id="clip-path-2"><path class="cls-1" d="M23.53,28.69a1.06,1.06,0,0,0,.3.26l7.27,4.2,1.21.69a1,1,0,0,0,.59.14l.2,0L42,17.59a1.12,1.12,0,0,0-.24-.19l-5.54-3.2-2.93-1.69a1,1,0,0,0-.27-.1Z"/></clipPath><linearGradient id="linear-gradient-2" x1="-124.33" y1="34.78" x2="-124.18" y2="34.78" gradientTransform="matrix(142.41, -105.22, -105.22, -142.41, 21387.32, -8098.43)" gradientUnits="userSpaceOnUse"><stop offset="0.57" stop-color="#3e863d"/><stop offset="0.72" stop-color="#619857"/><stop offset="1" stop-color="#76ac64"/></linearGradient><clipPath id="clip-path-3"><path class="cls-1" d="M32.71,12.38a1.23,1.23,0,0,0-.41.13l-8.44,4.88L33,34a1.15,1.15,0,0,0,.37-.12L41.8,29a1,1,0,0,0,.49-.69L33,12.4l-.21,0h-.08"/></clipPath><linearGradient id="linear-gradient-3" x1="-124.02" y1="36.65" x2="-123.88" y2="36.65" gradientTransform="matrix(129.89, 0, 0, -129.89, 16132.55, 4783.26)" gradientUnits="userSpaceOnUse"><stop offset="0.16" stop-color="#6bbf47"/><stop offset="0.38" stop-color="#79b461"/><stop offset="0.47" stop-color="#75ac64"/><stop offset="0.7" stop-color="#659e5a"/><stop offset="0.9" stop-color="#3e863d"/></linearGradient></defs><path class="cls-2" d="M19.08,18.13a1,1,0,0,0-.51-.89l-8.52-4.9a.94.94,0,0,0-.46-.13H9.5a1,1,0,0,0-.47.13L.51,17.24a1.06,1.06,0,0,0-.51.89l0,13.2a.5.5,0,0,0,.25.44.47.47,0,0,0,.51,0l5.07-2.9A1,1,0,0,0,6.36,28V21.82a1,1,0,0,1,.51-.89L9,19.69a.94.94,0,0,1,.51-.14.91.91,0,0,1,.51.14l2.16,1.24a1,1,0,0,1,.51.89V28a1,1,0,0,0,.52.89l5,2.9a.53.53,0,0,0,.52,0,.5.5,0,0,0,.25-.45ZM59.25,25a.25.25,0,0,1-.13.22L56.2,26.91a.24.24,0,0,1-.26,0L53,25.22a.25.25,0,0,1-.13-.22V21.63A.28.28,0,0,1,53,21.4l2.93-1.68a.24.24,0,0,1,.26,0l2.92,1.68a.26.26,0,0,1,.13.23ZM60,0a.49.49,0,0,0-.51,0,.5.5,0,0,0-.25.44V13.51a.35.35,0,0,1-.18.31.33.33,0,0,1-.36,0L56.6,12.6a1,1,0,0,0-1,0l-8.52,4.91a1,1,0,0,0-.51.89v9.83a1,1,0,0,0,.51.89L55.58,34a1,1,0,0,0,1,0l8.52-4.92a1,1,0,0,0,.51-.89V3.73a1,1,0,0,0-.52-.9ZM88.4,21.54a1,1,0,0,0,.51-.89V18.27a1,1,0,0,0-.51-.89l-8.46-4.91a1,1,0,0,0-1,0l-8.51,4.91a1,1,0,0,0-.51.89V28.1a1,1,0,0,0,.51.89l8.46,4.82a1,1,0,0,0,1,0L85,31a.52.52,0,0,0,.26-.45.51.51,0,0,0-.26-.45l-8.56-4.91a.54.54,0,0,1-.26-.45V21.64a.51.51,0,0,1,.26-.45l2.66-1.53a.47.47,0,0,1,.51,0l2.67,1.53a.51.51,0,0,1,.26.45v2.42a.54.54,0,0,0,.26.45.49.49,0,0,0,.51,0Z"/><path class="cls-3" d="M79.3,21.08a.17.17,0,0,1,.19,0l1.64.94a.2.2,0,0,1,.09.17v1.89a.2.2,0,0,1-.09.17l-1.64.94a.17.17,0,0,1-.19,0l-1.64-.94a.21.21,0,0,1-.1-.17V22.19a.21.21,0,0,1,.1-.17Z"/><g class="cls-4"><path class="cls-5" d="M50.86,16.57,27,4.88l-12.23,25,23.86,11.7Z"/></g><g class="cls-6"><path class="cls-7" d="M13.22,20l16.84,22.8L52.35,26.37,35.5,3.57Z"/></g><g class="cls-8"><path class="cls-9" d="M23.86,12.38V34H42.29V12.38Z"/></g></svg>