<svg id="Layer_1" data-name="Layer 1" xmlns="http://www.w3.org/2000/svg" xmlns:xlink="http://www.w3.org/1999/xlink" viewBox="0 0 120.78 117.79"><defs><style>.cls-1{fill:url(#radial-gradient);}.cls-2{fill:url(#radial-gradient-2);}.cls-3{fill:url(#linear-gradient);}.cls-4{fill:url(#radial-gradient-3);}.cls-5{fill:url(#radial-gradient-4);}.cls-6{fill:url(#radial-gradient-5);}.cls-7{fill:url(#radial-gradient-6);}.cls-8{fill:url(#radial-gradient-7);}.cls-9{fill:url(#linear-gradient-2);}.cls-10{fill:url(#linear-gradient-3);}.cls-11{fill:url(#linear-gradient-4);}.cls-12{fill:url(#linear-gradient-5);}.cls-13{fill:url(#linear-gradient-6);}.cls-14{fill:url(#linear-gradient-7);}</style><radialGradient id="radial-gradient" cx="-15312.63" cy="9070.39" r="53.56" gradientTransform="matrix(0.76, 0.03, 0.05, -1.12, 11326.35, 10709.16)" gradientUnits="userSpaceOnUse"><stop offset="0.04" stop-color="#ffea00"/><stop offset="0.12" stop-color="#ffde00"/><stop offset="0.25" stop-color="#ffbf00"/><stop offset="0.43" stop-color="#ff8e00"/><stop offset="0.77" stop-color="#ff272d"/><stop offset="0.87" stop-color="#e0255a"/><stop offset="0.95" stop-color="#cc2477"/><stop offset="1" stop-color="#c42482"/></radialGradient><radialGradient id="radial-gradient-2" cx="-7932.7" cy="8587.99" r="93.99" gradientTransform="matrix(1.23, 0, 0, -1.23, 9800.09, 10543.69)" gradientUnits="userSpaceOnUse"><stop offset="0" stop-color="#00ccda"/><stop offset="0.22" stop-color="#0083ff"/><stop offset="0.26" stop-color="#007af9"/><stop offset="0.33" stop-color="#0060e8"/><stop offset="0.33" stop-color="#005fe7"/><stop offset="0.44" stop-color="#2639ad"/><stop offset="0.52" stop-color="#401e84"/><stop offset="0.57" stop-color="#4a1475"/></radialGradient><linearGradient id="linear-gradient" x1="241.75" y1="531.01" x2="219.01" y2="605.4" gradientTransform="matrix(1, 0, 0, -1, -173.76, 618.08)" gradientUnits="userSpaceOnUse"><stop offset="0" stop-color="#000f43" stop-opacity="0.4"/><stop offset="0.48" stop-color="#001962" stop-opacity="0.17"/><stop offset="1" stop-color="#002079" stop-opacity="0"/></linearGradient><radialGradient id="radial-gradient-3" cx="-8985.94" cy="7455.51" r="31.7" gradientTransform="matrix(1.22, 0.12, 0.12, -1.22, 10158.52, 10269.47)" gradientUnits="userSpaceOnUse"><stop offset="0" stop-color="#ffea00"/><stop offset="0.5" stop-color="#ff272d"/><stop offset="1" stop-color="#c42482"/></radialGradient><radialGradient id="radial-gradient-4" cx="-8988.81" cy="7485.91" r="52.94" gradientTransform="matrix(1.22, 0.12, 0.12, -1.22, 10158.52, 10269.47)" gradientUnits="userSpaceOnUse"><stop offset="0" stop-color="#ffe900"/><stop offset="0.16" stop-color="#ffaf0e"/><stop offset="0.32" stop-color="#ff7a1b"/><stop offset="0.47" stop-color="#ff4e26"/><stop offset="0.62" stop-color="#ff2c2e"/><stop offset="0.76" stop-color="#ff1434"/><stop offset="0.89" stop-color="#ff0538"/><stop offset="1" stop-color="#ff0039"/></radialGradient><radialGradient id="radial-gradient-5" cx="-8981.32" cy="7436.83" r="48.58" gradientTransform="matrix(1.22, 0.12, 0.12, -1.22, 10158.52, 10269.47)" gradientUnits="userSpaceOnUse"><stop offset="0" stop-color="#ff272d"/><stop offset="0.5" stop-color="#c42482"/><stop offset="0.99" stop-color="#620700"/></radialGradient><radialGradient id="radial-gradient-6" cx="262.48" cy="570.82" r="92.91" gradientTransform="matrix(1, 0, 0, -1, -173.76, 618.08)" gradientUnits="userSpaceOnUse"><stop offset="0.16" stop-color="#ffea00"/><stop offset="0.23" stop-color="#ffde00"/><stop offset="0.36" stop-color="#ffbf00"/><stop offset="0.54" stop-color="#ff8e00"/><stop offset="0.76" stop-color="#ff272d"/><stop offset="0.8" stop-color="#f92433"/><stop offset="0.84" stop-color="#e91c45"/><stop offset="0.89" stop-color="#cf0e62"/><stop offset="0.94" stop-color="#b5007f"/></radialGradient><radialGradient id="radial-gradient-7" cx="255.49" cy="617.47" r="109.71" gradientTransform="matrix(1, 0, 0, -1, -173.76, 618.08)" gradientUnits="userSpaceOnUse"><stop offset="0.28" stop-color="#ffea00"/><stop offset="0.4" stop-color="#fd0"/><stop offset="0.63" stop-color="#ffba00"/><stop offset="0.86" stop-color="#ff9100"/><stop offset="0.93" stop-color="#ff6711"/><stop offset="0.99" stop-color="#ff4a1d"/></radialGradient><linearGradient id="linear-gradient-2" x1="-9067.03" y1="7474.17" x2="-9033.25" y2="7482.78" gradientTransform="matrix(1.22, 0.12, 0.12, -1.22, 10158.52, 10269.47)" gradientUnits="userSpaceOnUse"><stop offset="0" stop-color="#c42482" stop-opacity="0.5"/><stop offset="0.47" stop-color="#ff272d" stop-opacity="0.5"/><stop offset="0.49" stop-color="#ff2c2c" stop-opacity="0.51"/><stop offset="0.68" stop-color="#ff7a1a" stop-opacity="0.72"/><stop offset="0.83" stop-color="#ffb20d" stop-opacity="0.87"/><stop offset="0.94" stop-color="#ffd605" stop-opacity="0.96"/><stop offset="1" stop-color="#ffe302"/></linearGradient><linearGradient id="linear-gradient-3" x1="187" y1="1951.63" x2="180.52" y2="1968.24" gradientTransform="matrix(1, 0.1, 0.1, -1, -360.39, 1954.49)" gradientUnits="userSpaceOnUse"><stop offset="0" stop-color="#891551" stop-opacity="0.6"/><stop offset="1" stop-color="#c42482" stop-opacity="0"/></linearGradient><linearGradient id="linear-gradient-4" x1="-122.14" y1="327.34" x2="-110.96" y2="314.64" gradientTransform="matrix(1, 0.1, 0.1, -1, 118.74, 394.08)" gradientUnits="userSpaceOnUse"><stop offset="0.01" stop-color="#891551" stop-opacity="0.5"/><stop offset="0.48" stop-color="#ff272d" stop-opacity="0.5"/><stop offset="1" stop-color="#ff272d" stop-opacity="0"/></linearGradient><linearGradient id="linear-gradient-5" x1="-100.99" y1="305.28" x2="-100.98" y2="314.16" gradientTransform="matrix(1, 0.1, 0.1, -1, 118.74, 394.08)" gradientUnits="userSpaceOnUse"><stop offset="0" stop-color="#c42482"/><stop offset="0.08" stop-color="#c42482" stop-opacity="0.81"/><stop offset="0.21" stop-color="#c42482" stop-opacity="0.56"/><stop offset="0.33" stop-color="#c42482" stop-opacity="0.36"/><stop offset="0.45" stop-color="#c42482" stop-opacity="0.2"/><stop offset="0.56" stop-color="#c42482" stop-opacity="0.09"/><stop offset="0.67" stop-color="#c42482" stop-opacity="0.02"/><stop offset="0.77" stop-color="#c42482" stop-opacity="0"/></linearGradient><linearGradient id="linear-gradient-6" x1="251.24" y1="613.34" x2="287.55" y2="532.15" gradientTransform="matrix(1, 0, 0, -1, -173.76, 618.08)" gradientUnits="userSpaceOnUse"><stop offset="0" stop-color="#fff14f"/><stop offset="0.27" stop-color="#ffee4c"/><stop offset="0.45" stop-color="#ffe643"/><stop offset="0.61" stop-color="#ffd834"/><stop offset="0.76" stop-color="#ffc41e"/><stop offset="0.89" stop-color="#ffab02"/><stop offset="0.9" stop-color="#ffa900"/><stop offset="0.95" stop-color="#ffa000"/><stop offset="1" stop-color="#ff9100"/></linearGradient><linearGradient id="linear-gradient-7" x1="258.41" y1="566.64" x2="241.21" y2="520.46" gradientTransform="matrix(1, 0, 0, -1, -173.76, 618.08)" gradientUnits="userSpaceOnUse"><stop offset="0" stop-color="#ff8e00"/><stop offset="0.04" stop-color="#ff8e00" stop-opacity="0.86"/><stop offset="0.08" stop-color="#ff8e00" stop-opacity="0.73"/><stop offset="0.13" stop-color="#ff8e00" stop-opacity="0.63"/><stop offset="0.18" stop-color="#ff8e00" stop-opacity="0.56"/><stop offset="0.23" stop-color="#ff8e00" stop-opacity="0.51"/><stop offset="0.28" stop-color="#ff8e00" stop-opacity="0.5"/><stop offset="0.39" stop-color="#ff8e00" stop-opacity="0.48"/><stop offset="0.52" stop-color="#ff8e00" stop-opacity="0.42"/><stop offset="0.68" stop-color="#ff8e00" stop-opacity="0.31"/><stop offset="0.84" stop-color="#ff8e00" stop-opacity="0.17"/><stop offset="1" stop-color="#ff8e00" stop-opacity="0"/></linearGradient></defs><path class="cls-1" d="M95.26,11.33C92.42,14.64,91.09,22.1,94,29.65s7.3,5.92,10.06,13.62C107.68,53.44,106,67.1,106,67.1s4.37,12.67,7.42-.79C120.15,41.05,95.26,17.55,95.26,11.33Z"/><path id="_Path_" data-name=" Path " class="cls-2" d="M60.55,116.23a53,53,0,1,0-52.67-53A52.86,52.86,0,0,0,60.55,116.23Z"/><path class="cls-3" d="M100.06,95.92a30.1,30.1,0,0,1-3.58,2.16A82.85,82.85,0,0,0,101,90.6a29.94,29.94,0,0,0,3-3.76c.4-.65.86-1.44,1.35-2.36a50.76,50.76,0,0,0,6.32-22.83V61a30.13,30.13,0,0,0-.68-6.62c0,.17,0,.34.07.51,0-.13,0-.26-.08-.39l.12.71c.6,5.13.17,10.14-2,13.83l-.11.16a46.09,46.09,0,0,0,.25-18s-.5-3-4.2-12.17a37.24,37.24,0,0,0-9.27-12.73,99,99,0,0,0-7.06-7.61c-3.07-3.23-4.35-5.65-4.88-7.23-.46-.23-6.31-5.92-6.78-6.14-2.55,4-10.59,16.36-6.77,27.94A28.8,28.8,0,0,0,81,47c.2.23,2.73,3,3.93,9.17,1.24,6.4.59,11.39-2,18.77-3,6.47-10.7,12.87-17.91,13.53-15.4,1.4-21-7.74-21-7.74,5.5,2.2,11.59,1.74,15.29-.54s6-4,7.82-3.34,3.24-1.28,2-3.3a9.33,9.33,0,0,0-9.43-4.11c-3.74.61-7.16,3.57-12,.7a9.06,9.06,0,0,1-.92-.6c-.32-.21,1,.32.73.08a22.89,22.89,0,0,1-3.07-2c-.08-.07.74.26.66.19-4.57-3.77-4-6.31-3.86-7.91a4.59,4.59,0,0,1,2.35-3.57,12,12,0,0,1,1.1.65l-.45-.9a1.24,1.24,0,0,1,.16,0,27.46,27.46,0,0,1,2.43,1.38,3.57,3.57,0,0,1,1.11,1.12s.22-.12.05-.64a3.31,3.31,0,0,0-1.14-1.56h0a10.73,10.73,0,0,1,1.41,1,8.38,8.38,0,0,0,.56-3.33,4.68,4.68,0,0,0-.23-1.85c-.17-.37.1-.51.41-.13a4,4,0,0,0-.26-.88v0c.38-1.33,8.11-4.8,8.67-5.21a7.89,7.89,0,0,0,2.27-2.47,6.21,6.21,0,0,0,.83-3.1c0-1.05-.44-1.75-8.25-2.57a5.23,5.23,0,0,1-4.1-3.18c-.13-.31-.27-.59-.4-.87a6.78,6.78,0,0,1-.3-1A18.69,18.69,0,0,1,54,23.51c.18-.16-.68,0-.51-.12a16.71,16.71,0,0,1,1.76-.83c.3-.14-1.3-.82-2.7-.65a6.57,6.57,0,0,0-2.51.66c.32-.32,1.33-.73,1.09-.73A14.9,14.9,0,0,0,46,24a1.33,1.33,0,0,1,.09-.52,8.23,8.23,0,0,0-3.19,2.75,3.39,3.39,0,0,0,0-.64,10.52,10.52,0,0,0-1.56,1.64l0,0a18.79,18.79,0,0,0-11.65-1.1C29,25.42,28.66,26,27,22.34c-.11-.22.09.21,0,0-.27-.7.17.93,0,0-2.77,2.18-6.4,4.65-8.15,6.4,0,.07,2-.58,0,0-.72.2-.67.63-.78,4.45,0,.29,0,.62,0,.88a24.5,24.5,0,0,0-2.71,4.06c-1.8,3.11-3.79,8-5.72,15.63a39.8,39.8,0,0,1,3.07-6c-1.61,4.07-3.15,10.47-3.46,20.31a56.83,56.83,0,0,1,1.48-6A56.3,56.3,0,0,0,14.85,86a58.47,58.47,0,0,0,6.06,11.33,53.69,53.69,0,0,0,79.15-1.36Z"/><path class="cls-4" d="M88.23,103.41c19.35-2.24,27.92-22.18,16.92-22.57C95.21,80.52,79.07,104.46,88.23,103.41Z"/><path class="cls-5" d="M106.54,76.77c13.31-7.75,9.84-24.48,9.84-24.48a54.54,54.54,0,0,0-8.63,15.48C104.31,77.19,98.54,81.44,106.54,76.77Z"/><path class="cls-6" d="M64.28,113.31c18.56,5.92,34.51-8.7,24.68-13.58C80,95.33,55.47,110.51,64.28,113.31Z"/><path class="cls-7" d="M107.92,83.87c.45-.64,1.06-2.68,1.6-3.59,3.28-5.29,3.3-9.5,3.3-9.6,2-9.89,1.8-13.92.59-21.39-1-6-5.27-14.62-9-18.77s-1.13-2.88-4.83-6c-3.25-3.6-6.4-7.16-8.11-8.59C79.1,5.57,79.38,3.37,79.62,3l-.18.19c-.14-.58-.25-1.07-.25-1.07A33.2,33.2,0,0,0,71,20.17a27.61,27.61,0,0,0,5.82,20,45.68,45.68,0,0,0,7,6.89h0A27,27,0,0,1,88.5,62.45,26.08,26.08,0,0,1,62.41,88.52a25.42,25.42,0,0,1-5.83-.65,21.46,21.46,0,0,1-12.69-7.06,12.9,12.9,0,0,1-1.6-2.3c6.1,2.18,12.83,1.72,16.93-.54s6.62-4,8.65-3.32,3.59-1.26,2.16-3.27a10.8,10.8,0,0,0-10.44-4.07c-4.13.6-7.92,3.54-13.33.7-.35-.19-.69-.38-1-.6s1.16.32.81.08a26.19,26.19,0,0,1-3.4-2c-.08-.06.81.26.73.19-5.06-3.73-4.43-6.26-4.27-7.84a4.55,4.55,0,0,1,2.6-3.55c.75.37,1.21.65,1.21.65L42.43,54a1.16,1.16,0,0,1,.18,0c.61.26,2,1,2.68,1.37a3.81,3.81,0,0,1,1.23,1.11s.24-.12.06-.63a3.26,3.26,0,0,0-1.27-1.55h.06a11.31,11.31,0,0,1,1.56,1,7.62,7.62,0,0,0,.63-3.31c-.07-1.11,0-1.4-.26-1.82s.11-.52.45-.13a3.37,3.37,0,0,0-.29-.88v0c.43-1.33,9-4.77,9.6-5.17a8.53,8.53,0,0,0,2.52-2.45,5.88,5.88,0,0,0,.92-3.08c0-.65-.18-1.17-2.44-1.66a64,64,0,0,0-6.7-.89,5.68,5.68,0,0,1-4.54-3.16c-.15-.3-.29-.58-.44-.85a7.36,7.36,0,0,1-.34-1,18.9,18.9,0,0,1,7.28-9c.19-.16-.76,0-.57-.12a20,20,0,0,1,2-.82c.33-.14-1.43-.81-3-.65a8.1,8.1,0,0,0-2.77.65c.35-.31,1.47-.72,1.21-.72a17.91,17.91,0,0,0-5.66,2.14,1.31,1.31,0,0,1,.11-.52,8.84,8.84,0,0,0-3.53,2.73,4.5,4.5,0,0,0,0-.64,11.13,11.13,0,0,0-1.73,1.63l0,0a23,23,0,0,0-12.89-1.1A15.53,15.53,0,0,1,22.54,19c-.12-.21-.19.45-.29.23a16.61,16.61,0,0,1-1.06-6.18s-1.46.67-2.67,3.45c-.23.5-.37.78-.52,1.06-.06.08.15-.92.12-.86a7.59,7.59,0,0,0-1,1.5,12,12,0,0,0-.54,1.34l0,.05c0-.17,0-.72,0-.61a26.75,26.75,0,0,0-1.46,3.55,33.08,33.08,0,0,0-1.53,8.85c0,.29,0,.61,0,.87a24.65,24.65,0,0,0-3,4c-2,3.09-4.19,7.9-6.33,15.5a38.75,38.75,0,0,1,3.39-5.94C5.82,49.9,4.11,56.24,3.76,66a51.75,51.75,0,0,1,1.65-6A50.61,50.61,0,0,0,10,83.72a55.13,55.13,0,0,0,21.81,24.72h0a47.66,47.66,0,0,0,12.71,6.09c.6.21,1.2.43,1.81.63l-.56-.24a57.53,57.53,0,0,0,16.49,2.42c20.81,0,26.95-8.34,26.95-8.34l-.07,0c.3-.28.58-.57.85-.87-3.28,3.1-10.77,3.31-13.57,3.09,4.77-1.41,7.92-2.59,14-4.94.72-.26,1.45-.56,2.2-.9l.24-.11.45-.21a41.44,41.44,0,0,0,8.34-5.23c6.15-4.9,7.48-9.68,8.18-12.84-.1.31-.4,1-.61,1.47-1.59,3.38-5.09,5.46-8.9,7.24a82.61,82.61,0,0,0,5-7.42C106.61,87.1,107,85.17,107.92,83.87Z"/><path class="cls-8" d="M100.45,95.6a39.36,39.36,0,0,0,6.45-9.5c4.39-9.21,11.16-24.54,5.83-40.54-4.22-12.65-10-19.57-17.37-26.32C83.42,8.26,80.08,3.37,80.08.45c0,0-13.79,15.38-7.81,31.41S90.5,47.3,98.61,64c9.53,19.69-7.72,41.18-22,47.19.87-.19,31.71-7.17,33.33-24.81C109.92,86.73,109.23,91.61,100.45,95.6Z"/><path class="cls-9" d="M60.5,38.39c0-1-.5-1.74-9.11-2.55-3.55-.33-4.9-3.6-5.32-5a24.62,24.62,0,0,0-1.5,10.87c.19,2.72,2,5.64,2.9,7.36,0,0,.19-.26.28-.35C49.4,47,56.29,44.41,56.94,44S60.38,41.61,60.5,38.39Z"/><path class="cls-10" d="M22.57,19c-.12-.22-.19.45-.29.23a15.94,15.94,0,0,1-1-6.18s-1.46.67-2.68,3.46c-.22.5-.36.77-.51,1.05a6.82,6.82,0,0,1,.12-.86,7.75,7.75,0,0,0-1,1.47,8,8,0,0,0-.55,1.4c-.05.17,0-.76,0-.64-2.81,5.44-3.35,13.67-3.05,13.32a27.75,27.75,0,0,1,12.86-7.92A14.53,14.53,0,0,1,22.57,19Z"/><path class="cls-11" d="M45.32,86C37,82.46,27.62,77.47,28,66.14c.48-14.92,13.91-12,13.91-12a4.84,4.84,0,0,0-2.34,2.11,6.44,6.44,0,0,0,1.37,7.24c4.41,4.77-9,11.32,11.72,23.7.53.29-4.87-.17-7.32-1.23Z"/><path class="cls-12" d="M42.38,78.56c5.87,2,12.71,1.68,16.81-.58,2.74-1.53,6.26-4,8.42-3.37a14.59,14.59,0,0,0-5-1.17c-.29,0-.64,0-1,0a16.61,16.61,0,0,0-1.87.1c-1.06.1-2.23.77-3.3.66-.06,0,1-.45.95-.43-.57.12-1.18.15-1.83.23-.41,0-.77.09-1.17.11-12.24,1-22.58-6.63-22.58-6.63-.88,3,3.94,8.83,10.52,11.12Z"/><path class="cls-13" d="M100.43,95.68c12.37-12.15,18.63-26.92,16-43.48a35,35,0,0,1-3,17.18,45.52,45.52,0,0,0-3-29.93C103.67,24.88,92.43,17.21,88.14,14,81.65,9.17,79,4.24,78.91,3.22c-1.94,4-7.82,17.61-.63,29.34C85,43.56,95.6,46.82,103,56.91,116.69,75.49,100.43,95.68,100.43,95.68Z"/><path class="cls-14" d="M98.65,64.07c-4.32-8.93-9.72-12.83-14.82-17,.59.83.74,1.12,1.07,1.66a31.53,31.53,0,0,1,6.3,31.14c-9,27.6-45.27,14.6-49.07,11,1.54,16,28.28,23.62,45.69,13.26C97.73,94.65,105.74,78.71,98.65,64.07Z"/></svg>