<svg id="Layer_1" data-name="Layer 1" xmlns="http://www.w3.org/2000/svg" viewBox="0 0 79.62 90.29"><defs><style>.cls-1{fill:#264de4;}.cls-2{fill:#2965f1;}.cls-3{fill:#ebebeb;}.cls-4{fill:#fff;}</style></defs><polygon id="polygon2989" class="cls-1" points="39.76 90.3 7.25 81.27 0 0 79.62 0 72.36 81.26 39.76 90.3"/><polygon id="polygon2991" class="cls-2" points="66.15 76.08 72.35 6.64 39.81 6.64 39.81 83.39 66.15 76.08"/><polygon id="polygon2993" class="cls-3" points="16.61 36.79 17.5 46.75 39.81 46.75 39.81 36.79 16.61 36.79"/><polygon id="polygon2995" class="cls-3" points="14.81 16.61 15.72 26.58 39.81 26.58 39.81 16.61 39.77 16.61 14.81 16.61"/><polygon id="polygon2997" class="cls-3" points="39.81 62.67 39.77 62.68 28.66 59.69 27.95 51.74 22.56 51.74 17.95 51.74 19.35 67.39 39.76 73.06 39.81 73.04 39.81 62.67"/><polygon id="polygon3005" class="cls-4" points="62.94 36.79 64.74 16.61 39.77 16.61 39.77 26.58 53.82 26.58 52.91 36.79 39.77 36.79 39.77 46.75 52.05 46.75 50.89 59.68 39.77 62.68 39.77 73.05 60.21 67.39 60.36 65.7 62.7 39.46 62.94 36.79"/></svg>