<svg id="Layer_1" data-name="Layer 1" xmlns="http://www.w3.org/2000/svg" viewBox="0 0 88.47 88.91"><defs><style>.cls-1{fill:#f05133;}</style></defs><path class="cls-1" d="M87.14,40.49,48.32,1.68a5.71,5.71,0,0,0-8.09,0L32.17,9.74,42.39,20A6.8,6.8,0,0,1,51,28.63l9.86,9.86a6.81,6.81,0,1,1-4.08,3.84l-9.2-9.19V57.32a7.05,7.05,0,0,1,1.81,1.29,6.82,6.82,0,1,1-9.64,0A6.89,6.89,0,0,1,42,57.13V32.71a6.74,6.74,0,0,1-2.23-1.48,6.84,6.84,0,0,1-1.47-7.45L28.2,13.7,1.59,40.31a5.72,5.72,0,0,0,0,8.1L40.41,87.23a5.71,5.71,0,0,0,8.09,0L87.14,48.59A5.72,5.72,0,0,0,87.14,40.49Z"/></svg>