<svg id="Layer_1" data-name="Layer 1" xmlns="http://www.w3.org/2000/svg" viewBox="0 0 119.52 89.58"><defs><style>.cls-1{fill:#cd6799;}</style></defs><path class="cls-1" d="M102.72,51.47A24.58,24.58,0,0,0,91.94,54c-1.11-2.2-2.22-4.15-2.41-5.59a14.9,14.9,0,0,1-.22-4.69,43.72,43.72,0,0,1,1.41-5.07c0-.21-.26-1.24-2.65-1.26s-4.45.46-4.69,1.09a25.3,25.3,0,0,0-1,3.54C82,44.17,77.6,51.92,75.1,56a13.59,13.59,0,0,1-1.87-8.78,41.7,41.7,0,0,1,1.41-5.07c0-.21-.26-1.23-2.65-1.26s-4.46.46-4.69,1.09-.5,2.11-1,3.54S60,59.9,58.47,63.25c-.78,1.71-1.45,3.08-1.93,4h0a.88.88,0,0,1-.09.17c-.41.81-.65,1.24-.65,1.24v0c-.33.59-.68,1.13-.85,1.13a7.27,7.27,0,0,1,0-3.69c.87-4.5,2.94-11.5,2.92-11.74s.39-1.35-1.35-2a2.16,2.16,0,0,0-2.46.42c-.15,0-.26.37-.26.37s1.89-7.87-3.61-7.87c-3.43,0-8.17,3.76-10.51,7.15l-8,4.37L27.87,59c-.09-.09-.17-.2-.26-.29C21,51.58,8.66,46.56,9.18,37c.2-3.48,1.39-12.61,23.62-23.69,18.3-9,32.87-6.52,35.39-1,3.6,7.91-7.81,22.6-26.71,24.73-7.22.8-11-2-12-3s-1.15-1.15-1.52-.93c-.61.32-.22,1.3,0,1.86.57,1.48,2.89,4.09,6.83,5.37C38.3,41.49,46.76,42.12,57,38.17,68.45,33.73,77.4,21.41,74.77,11.09,72.14.61,54.76-2.84,38.3,3c-9.78,3.48-20.38,9-28,16.09C1.23,27.56-.21,34.93.38,38,2.49,49,17.59,56.1,23.63,61.38l-.82.45c-3,1.5-14.54,7.52-17.41,13.89-3.26,7.22.52,12.39,3,13.09,7.76,2.15,15.74-1.72,20-8.11S32.2,66,30.22,62.2a.44.44,0,0,0-.09-.13l2.37-1.39c1.54-.91,3.07-1.76,4.37-2.45a28.55,28.55,0,0,0-1.54,7.91c-.33,4.08,1.34,9.39,3.54,11.47a3.89,3.89,0,0,0,2.87.94c2.56,0,3.71-2.13,5-4.65,1.56-3.09,3-6.68,3-6.68s-1.76,9.7,3,9.7c1.74,0,3.5-2.26,4.29-3.41v0l.13-.22.28-.46v0c.69-1.22,2.26-4,4.58-8.56C65,58.34,67.9,51,67.9,51a37.05,37.05,0,0,0,1.16,4.8,44.85,44.85,0,0,0,2.47,5.56c-.69,1-1.13,1.52-1.13,1.52l0,0c-.57.74-1.18,1.54-1.85,2.32-2.37,2.83-5.2,6.07-5.59,7a1.9,1.9,0,0,0,.52,2.56,4.71,4.71,0,0,0,2.92.48,13.08,13.08,0,0,0,4.36-1,14.28,14.28,0,0,0,3.76-2,8.39,8.39,0,0,0,3.61-7.41,14.75,14.75,0,0,0-1.37-5.23c.22-.31.42-.61.63-.92a97.81,97.81,0,0,0,6.52-11.25,37.05,37.05,0,0,0,1.16,4.8A32,32,0,0,0,87.2,57a20.65,20.65,0,0,0-6.34,8.19c-1.37,4-.31,5.74,1.71,6.15a6.06,6.06,0,0,0,3.18-.65,14.49,14.49,0,0,0,4-2.06c2.32-1.72,4.56-4.11,4.43-7.35a13.89,13.89,0,0,0-1-4.35,22.81,22.81,0,0,1,11.54-1.32c10.35,1.22,12.39,7.67,12,10.39a6.92,6.92,0,0,1-3.28,4.65c-.72.45-1,.61-.89.93.08.48.43.46,1,.37a8.07,8.07,0,0,0,5.63-7.19C119.56,58.38,113.48,51.4,102.72,51.47Zm-79.8,26.9c-3.44,3.74-8.22,5.15-10.28,4-2.22-1.28-1.35-6.8,2.87-10.76a54.47,54.47,0,0,1,8.06-6l2.13-1.28.24-.13h0l.52-.33A14.86,14.86,0,0,1,22.92,78.37Zm25-17c-1.2,2.91-3.7,10.37-5.22,9.95-1.3-.35-2.1-6-.26-11.58a26.28,26.28,0,0,1,4.07-7.46c1.87-2.08,3.93-2.78,4.43-1.93C51.56,51.47,48.65,59.55,47.91,61.38Zm20.62,9.87c-.5.26-1,.43-1.19.3s.22-.44.22-.44,2.58-2.78,3.6-4c.59-.74,1.29-1.61,2-2.58v.28C73.19,68.09,70,70.33,68.53,71.25Zm15.91-3.63c-.37-.27-.3-1.13.94-3.85a14.54,14.54,0,0,1,3.54-4.57,6.16,6.16,0,0,1,.35,2C89.25,65.4,86.25,67,84.44,67.62Z"/></svg>