<svg id="Layer_1" data-name="Layer 1" xmlns="http://www.w3.org/2000/svg" viewBox="0 0 88.91 34.58"><defs><style>.cls-1{fill:#cb3837;}.cls-2{fill:#fff;}</style></defs><path class="cls-1" d="M0,0H88.91V29.64H44.45v4.94H24.7V29.64H0ZM4.94,24.7h9.88V9.88h4.94V24.7H24.7V4.94H4.94ZM29.64,4.94v24.7h9.87V24.7h9.88V4.94Zm9.87,4.94h4.94v9.88H39.51ZM54.33,4.94V24.7h9.88V9.88h4.94V24.7h4.94V9.88H79V24.7H84V4.94Z"/><polygon class="cls-2" points="4.94 24.7 14.82 24.7 14.82 9.88 19.76 9.88 19.76 24.7 24.7 24.7 24.7 4.94 4.94 4.94 4.94 24.7"/><path class="cls-2" d="M29.64,4.94v24.7h9.87V24.7h9.88V4.94ZM44.45,19.76H39.51V9.88h4.94Z"/><polygon class="cls-2" points="54.33 4.94 54.33 24.7 64.21 24.7 64.21 9.88 69.15 9.88 69.15 24.7 74.09 24.7 74.09 9.88 79.03 9.88 79.03 24.7 83.97 24.7 83.97 4.94 54.33 4.94"/></svg>