<svg id="Layer_1" data-name="Layer 1" xmlns="http://www.w3.org/2000/svg" viewBox="0 0 79.62 90.29"><defs><style>.cls-1{fill:#e44d26;}.cls-2{fill:#f16529;}.cls-3{fill:#fff;}.cls-4{fill:none;}.cls-5{fill:#ebebeb;}</style></defs><polygon id="polygon3028" class="cls-1" points="79.62 0 72.36 81.26 39.76 90.3 7.25 81.27 0 0 79.62 0"/><polygon id="polygon3030" class="cls-2" points="39.81 83.52 66.15 76.21 72.35 6.78 39.81 6.78 39.81 83.52"/><polygon class="cls-3" points="65.38 35.51 65.38 26.58 39.81 13.87 39.81 22.56 65.38 35.51"/><polygon class="cls-3" points="65.38 50.2 65.38 41.27 39.81 28.56 39.81 37.25 65.38 50.2"/><polygon class="cls-3" points="65.38 64.89 65.38 55.96 39.81 43.25 39.81 51.94 65.38 64.89"/><polygon class="cls-4" points="39.79 22.55 14.23 35.51 14.23 26.58 39.81 13.87 39.81 -1.89 2.79 -1.89 2.79 67.96 39.81 67.96 39.81 51.94 39.79 51.93 14.23 64.89 14.23 55.96 39.81 43.25 39.81 37.25 39.79 37.24 14.23 50.2 14.23 41.27 39.81 28.56 39.81 22.56 39.79 22.55"/><polygon class="cls-5" points="14.23 35.51 39.79 22.55 39.81 22.56 39.81 13.87 14.23 26.58 14.23 35.51"/><polygon class="cls-5" points="14.23 50.2 39.79 37.24 39.81 37.25 39.81 28.56 14.23 41.27 14.23 50.2"/><polygon class="cls-5" points="14.23 64.89 39.79 51.93 39.81 51.94 39.81 43.25 14.23 55.96 14.23 64.89"/></svg>