<svg id="Layer_1" data-name="Layer 1" xmlns="http://www.w3.org/2000/svg" viewBox="0 0 59.27 88.91"><defs><style>.cls-1{fill:#0acf83;}.cls-2{fill:#a259ff;}.cls-3{fill:#f24e1e;}.cls-4{fill:#ff7262;}.cls-5{fill:#1abcfe;}</style></defs><path id="path0_fill" data-name="path0 fill" class="cls-1" d="M14.82,88.91A14.83,14.83,0,0,0,29.64,74.09V59.27H14.82a14.82,14.82,0,1,0,0,29.64Z"/><path id="path1_fill" data-name="path1 fill" class="cls-2" d="M0,44.45A14.82,14.82,0,0,1,14.82,29.64H29.64V59.27H14.82A14.83,14.83,0,0,1,0,44.45Z"/><path id="path1_fill-2" data-name="path1 fill" class="cls-3" d="M0,14.82A14.83,14.83,0,0,1,14.82,0H29.64V29.64H14.82A14.83,14.83,0,0,1,0,14.82Z"/><path id="path2_fill" data-name="path2 fill" class="cls-4" d="M29.64,0H44.45a14.82,14.82,0,0,1,0,29.64H29.64Z"/><path id="path3_fill" data-name="path3 fill" class="cls-5" d="M59.27,44.45A14.82,14.82,0,1,1,44.45,29.64,14.83,14.83,0,0,1,59.27,44.45Z"/></svg>