<svg id="Layer_1" data-name="Layer 1" xmlns="http://www.w3.org/2000/svg" viewBox="0 0 89.58 89.58"><defs><style>.cls-1{fill:#f7df1e;}</style></defs><rect class="cls-1" width="89.58" height="89.58"/><path d="M60.17,70c1.81,3,4.15,5.11,8.31,5.11,3.48,0,5.71-1.74,5.71-4.15,0-2.89-2.29-3.91-6.13-5.59l-2.1-.9c-6.07-2.59-10.11-5.83-10.11-12.68,0-6.32,4.81-11.12,12.33-11.12,5.35,0,9.2,1.86,12,6.74L73.59,51.6C72.15,49,70.59,48,68.18,48s-4,1.56-4,3.61c0,2.52,1.56,3.54,5.17,5.11l2.11.9c7.15,3.07,11.19,6.19,11.19,13.22,0,7.58-6,11.73-14,11.73-7.82,0-12.87-3.72-15.34-8.6Zm-29.73.73C31.76,73.06,33,75,35.85,75s4.51-1.08,4.51-5.29V41.13h8.42V69.86c0,8.72-5.11,12.69-12.57,12.69-6.74,0-10.64-3.49-12.62-7.69Z"/></svg>