<svg id="Layer_1" data-name="Layer 1" xmlns="http://www.w3.org/2000/svg" viewBox="0 0 72 30.44"><defs><style>.cls-1{fill:#20c4cb;fill-rule:evenodd;}</style></defs><path class="cls-1" d="M48.65,24.16a10,10,0,0,1-6.08,3.28,2.36,2.36,0,0,1-2.5-2.31,5.7,5.7,0,0,1,0-1.6c.5-3.12,1.65-5.05,1.58-5.64,0-.17-.12-.26-.24-.26-1,0-4.36,3.5-4.87,5.81l-.4,1.86a2.75,2.75,0,0,1-2.42,2.14.73.73,0,0,1-.8-.67,2.21,2.21,0,0,1,.05-.63l.19-1c-1.82,1.37-3.79,2.29-4.72,2.29a2.09,2.09,0,0,1-2.21-1.69,3.9,3.9,0,0,1-3.11,1.69A4.15,4.15,0,0,1,19.54,25,17.4,17.4,0,0,1,16,28.08a13.14,13.14,0,0,1-7.09,2.36A8.93,8.93,0,0,1,3.06,28,10.47,10.47,0,0,1,.11,21.68c-.86-7,3.42-16.25,10.05-20.29A9.32,9.32,0,0,1,14.94,0a5.81,5.81,0,0,1,5.89,5c.3,2.46-.68,4.58-3.4,5.95-1.39.7-2.08.67-2.29.33a.66.66,0,0,1,.21-.83C17.91,8.31,18,6.56,17.66,4.08a2.66,2.66,0,0,0-2.42-2.61C10.21,1.47,3,12.75,4,21c.39,3.2,2.36,6.91,6.38,6.91a9.28,9.28,0,0,0,4-1,13.81,13.81,0,0,0,4.7-3.48c-.3-3.8,2.95-8.56,7.8-8.56,2.09,0,3.83.84,4,2.52a2.14,2.14,0,0,1-2.21,2.53c-.59,0-1.53-.17-1.6-.72s1.27-.25,1.11-1.6c-.1-.84-1-1.13-1.82-1.13-3,0-4.68,4.21-4.36,6.82.14,1.18.75,2.35,1.84,2.35.88,0,2.15-1.26,2.63-3.11a2.79,2.79,0,0,1,2.39-2.11.75.75,0,0,1,.84.68,2.09,2.09,0,0,1-.05.63c-.1.55-.52,2.37-.5,2.75a.75.75,0,0,0,.77.78,9.68,9.68,0,0,0,3.65-2.28c.49-2.51,1.09-5.6,1.13-5.84.19-1,.55-2.06,2.61-2.06a.74.74,0,0,1,.8.72,2.09,2.09,0,0,1,0,.63L37.55,19c1.81-2.4,4.61-4.17,6.28-4.17A1.25,1.25,0,0,1,45.19,16a5,5,0,0,1-.35,1.94,48.92,48.92,0,0,0-1.71,6.23A.87.87,0,0,0,44,25.25a7.38,7.38,0,0,0,4.48-3.06c0-.32,0-.65,0-1A15,15,0,0,1,48.94,17a3.4,3.4,0,0,1,2.64-2.14.72.72,0,0,1,.8.76,1.5,1.5,0,0,1-.13.58,16.36,16.36,0,0,0-1,5.31,16.19,16.19,0,0,0,.42,3.32c0,.17.08.34.25.34s2.26-1.93,3.69-4.29a4.65,4.65,0,0,1-2-4.09c0-3,1.8-4.58,3.56-4.58,1.39,0,2.64,1,2.64,3a9.47,9.47,0,0,1-1.21,4.08s.29,0,.42,0a3.13,3.13,0,0,0,2.39-1.05,2.3,2.3,0,0,1,.59-.53,7.63,7.63,0,0,1,5.87-2.92c2,0,3.83.8,4,2.48a2.16,2.16,0,0,1-2.2,2.57c-.62,0-1.57-.17-1.63-.72s1.31-.25,1.15-1.55c-.11-.85-1-1.18-1.82-1.18-2.81,0-4.74,3.74-4.37,6.78.15,1.22.71,2.4,1.8,2.4.88,0,2.19-1.27,2.68-3.12A2.84,2.84,0,0,1,70,20.37a.77.77,0,0,1,.84.72,12.91,12.91,0,0,1-.54,2.78A6.14,6.14,0,0,0,70.11,26a3.87,3.87,0,0,0,1.22,2.48,1,1,0,0,1,.32.5.59.59,0,0,1-.64.64.76.76,0,0,1-.43-.09,5,5,0,0,1-3.31-3.74,4,4,0,0,1-3.07,1.64,4.38,4.38,0,0,1-4.08-3.88,6.69,6.69,0,0,1,.3-2.81,4.7,4.7,0,0,1-2.38.75,4.23,4.23,0,0,1-.71,0A18.35,18.35,0,0,1,52,26.94a3.7,3.7,0,0,1-1.63.51,1,1,0,0,1-.88-.38,7.9,7.9,0,0,1-.8-2.91Zm6.83-9a4.94,4.94,0,0,0,1.34,3.2,6.81,6.81,0,0,0,.46-2.4c0-1.52-.58-2.19-1-2.19S55.48,14.57,55.48,15.2Z"/></svg>