<svg id="Layer_1" data-name="Layer 1" xmlns="http://www.w3.org/2000/svg" viewBox="0 0 123.86 123.86"><defs><style>.cls-1{fill:#14b900;}</style></defs><g id="Accessibility"><path class="cls-1" d="M61.93,0a61.93,61.93,0,1,0,61.93,61.93h0A62,62,0,0,0,61.93,0ZM61,12.32a8,8,0,1,1-8,8v0a8,8,0,0,1,7.91-8H61Zm34.7,25.86-23.84,3V65l11.55,38.52A4.48,4.48,0,0,1,80.22,109h0a4.4,4.4,0,0,1-5.42-3.07l0-.11L62.91,70.73H59.26L48.38,106.55A4.47,4.47,0,0,1,42.56,109h0a4.64,4.64,0,0,1-2.8-5.88l10-37.84V41.05l-21.95-3a4,4,0,0,1-3.61-4.34v-.08a4.18,4.18,0,0,1,4.47-3.79l26.67,2.28H67l28.38-2.36a4.09,4.09,0,0,1,4.25,3.92v0a4.23,4.23,0,0,1-4,4.47Z"/></g></svg>