<svg id="Layer_1" data-name="Layer 1" xmlns="http://www.w3.org/2000/svg" xmlns:xlink="http://www.w3.org/1999/xlink" viewBox="0 0 89.58 89.58"><defs><style>.cls-1{fill:#fff;}.cls-1,.cls-7{fill-rule:evenodd;}.cls-2{mask:url(#mask);}.cls-3{fill:#0065a9;}.cls-4{fill:#007acc;}.cls-5{fill:#1f9cf0;}.cls-6{opacity:0.25;}.cls-7{fill:url(#linear-gradient);}</style><mask id="mask" x="0" y="0.26" width="89.58" height="89.06" maskUnits="userSpaceOnUse"><g id="mask0"><path class="cls-1" d="M63.54,88.94A5.59,5.59,0,0,0,68,88.77L86.41,79.9a5.6,5.6,0,0,0,3.17-5V14.72a5.6,5.6,0,0,0-3.17-5L68,.81a5.59,5.59,0,0,0-5.7.51,5.86,5.86,0,0,0-.66.57L26.33,34.08,11,22.42a3.72,3.72,0,0,0-4.76.21L1.27,27.11a3.74,3.74,0,0,0,0,5.52L14.6,44.79,1.27,57a3.73,3.73,0,0,0,0,5.51L6.2,67a3.72,3.72,0,0,0,4.76.21L26.33,55.49,61.62,87.68A5.62,5.62,0,0,0,63.54,88.94Zm3.67-64.47L40.44,44.79,67.21,65.11Z"/></g></mask><linearGradient id="linear-gradient" x1="275.39" y1="-119.73" x2="275.39" y2="-208.79" gradientTransform="matrix(1, 0, 0, -1, -230.63, -119.47)" gradientUnits="userSpaceOnUse"><stop offset="0" stop-color="#fff"/><stop offset="1" stop-color="#fff" stop-opacity="0"/></linearGradient></defs><g id="mask0-2" data-name="mask0"><path class="cls-1" d="M63.54,88.94A5.59,5.59,0,0,0,68,88.77L86.41,79.9a5.6,5.6,0,0,0,3.17-5V14.72a5.6,5.6,0,0,0-3.17-5L68,.81a5.59,5.59,0,0,0-5.7.51,5.86,5.86,0,0,0-.66.57L26.33,34.08,11,22.42a3.72,3.72,0,0,0-4.76.21L1.27,27.11a3.74,3.74,0,0,0,0,5.52L14.6,44.79,1.27,57a3.73,3.73,0,0,0,0,5.51L6.2,67a3.72,3.72,0,0,0,4.76.21L26.33,55.49,61.62,87.68A5.62,5.62,0,0,0,63.54,88.94Zm3.67-64.47L40.44,44.79,67.21,65.11Z"/></g><g class="cls-2"><path class="cls-3" d="M86.41,9.69,68,.81A5.58,5.58,0,0,0,61.6,1.89L1.22,57a3.72,3.72,0,0,0,0,5.51L6.15,67a3.73,3.73,0,0,0,4.77.21L83.63,12a3.71,3.71,0,0,1,6,2.95v-.22A5.6,5.6,0,0,0,86.41,9.69Z"/><path class="cls-4" d="M86.41,79.88,68,88.76a5.56,5.56,0,0,1-6.36-1.08l-60.38-55a3.73,3.73,0,0,1,0-5.52l4.93-4.48a3.73,3.73,0,0,1,4.77-.21L83.63,77.58a3.71,3.71,0,0,0,6-3v.21A5.6,5.6,0,0,1,86.41,79.88Z"/><path class="cls-5" d="M68,88.77a5.58,5.58,0,0,1-6.36-1.09,3.28,3.28,0,0,0,5.6-2.31V4.21a3.28,3.28,0,0,0-5.6-2.32A5.58,5.58,0,0,1,68,.81L86.41,9.68a5.6,5.6,0,0,1,3.17,5V74.86a5.6,5.6,0,0,1-3.17,5Z"/><g class="cls-6"><path class="cls-7" d="M63.48,88.94a5.59,5.59,0,0,0,4.44-.17L86.35,79.9a5.59,5.59,0,0,0,3.17-5V14.72a5.59,5.59,0,0,0-3.17-5L67.92.81a5.57,5.57,0,0,0-5.69.51,6,6,0,0,0-.67.57L26.28,34.08,10.91,22.42a3.72,3.72,0,0,0-4.76.21L1.22,27.11a3.73,3.73,0,0,0,0,5.52L14.54,44.79,1.22,57a3.72,3.72,0,0,0,0,5.51L6.15,67a3.72,3.72,0,0,0,4.76.21L26.28,55.49,61.56,87.68A5.71,5.71,0,0,0,63.48,88.94Zm3.67-64.47L40.38,44.79,67.15,65.11Z"/></g></g></svg>