<svg id="Layer_1" data-name="Layer 1" xmlns="http://www.w3.org/2000/svg" viewBox="0 0 100.27 89.06"><defs><style>.cls-1{fill:#53c1de;}</style></defs><path class="cls-1" d="M81.85,29.2c-1.06-.37-2.13-.7-3.21-1,.18-.73.35-1.46.5-2.19C81.56,14.23,80,4.74,74.56,1.62c-5.19-3-13.68.13-22.26,7.59-.85.74-1.67,1.5-2.48,2.27-.54-.51-1.09-1-1.65-1.52-9-8-18-11.34-23.41-8.21-5.19,3-6.73,11.92-4.54,23.08.22,1.1.46,2.2.73,3.3-1.27.36-2.5.74-3.68,1.15C6.73,33,0,38.72,0,44.69,0,50.86,7.23,57.05,18.2,60.8q1.34.45,2.7.84c-.3,1.18-.56,2.36-.79,3.56-2.08,11-.45,19.67,4.72,22.65,5.35,3.08,14.32-.08,23.05-7.72.69-.6,1.38-1.24,2.08-1.91.87.84,1.77,1.66,2.69,2.45,8.46,7.28,16.81,10.22,22,7.23,5.34-3.09,7.08-12.44,4.83-23.82q-.27-1.3-.6-2.67c.63-.18,1.25-.37,1.85-.57,11.41-3.78,18.84-9.9,18.84-16.15,0-6-7-11.79-17.7-15.49ZM79.37,56.8c-.54.18-1.1.35-1.67.52a99.66,99.66,0,0,0-5-12.61,99.69,99.69,0,0,0,4.85-12.43c1,.3,2,.61,2.95.94,9.22,3.17,14.84,7.86,14.84,11.47,0,3.85-6.07,8.84-15.93,12.11Zm-4.09,8.1A35.93,35.93,0,0,1,75.76,78c-.59,3.2-1.78,5.33-3.26,6.18-3.13,1.82-9.84-.54-17.08-6.77-.83-.71-1.66-1.48-2.5-2.28a100.15,100.15,0,0,0,8.34-10.6,98.75,98.75,0,0,0,13.49-2.08c.2.82.38,1.63.53,2.41Zm-41.34,19C30.87,85,28.43,85,27,84.17c-3.14-1.81-4.45-8.8-2.67-18.18.21-1.11.46-2.21.73-3.31a100.13,100.13,0,0,0,13.41,1.95A104.44,104.44,0,0,0,47,75.18c-.62.6-1.25,1.18-1.9,1.75a36,36,0,0,1-11.14,7ZM19.58,56.78A36.05,36.05,0,0,1,8,50.61c-2.47-2.12-3.72-4.22-3.72-5.92,0-3.62,5.41-8.25,14.42-11.39,1.13-.39,2.27-.75,3.43-1.08A101.18,101.18,0,0,0,27,44.79,102.15,102.15,0,0,0,22,57.55C21.21,57.31,20.39,57.05,19.58,56.78ZM24.39,24c-1.87-9.56-.63-16.77,2.5-18.58,3.33-1.93,10.69.82,18.46,7.71.49.44,1,.9,1.49,1.38A102.9,102.9,0,0,0,38.36,25a103.8,103.8,0,0,0-13.28,2.07c-.26-1-.49-2-.69-3.07Zm42.94,10.6q-1.45-2.52-3-5c3.17.4,6.21.93,9.07,1.58a90.16,90.16,0,0,1-3.18,8.57q-1.38-2.61-2.87-5.18Zm-17.51-17a90.59,90.59,0,0,1,5.86,7.07c-3.92-.18-7.85-.19-11.77,0,1.94-2.55,3.92-4.92,5.91-7.07ZM32.2,34.64c-1,1.7-1.92,3.41-2.81,5.15-1.24-2.94-2.3-5.82-3.17-8.61,2.85-.64,5.87-1.16,9-1.55C34.19,31.28,33.18,33,32.2,34.64Zm3.14,25.42a91.65,91.65,0,0,1-9.17-1.48c.88-2.84,2-5.79,3.22-8.79q1.35,2.61,2.83,5.15T35.34,60.06Zm14.6,12.06c-2-2.17-4-4.58-6-7.16,1.91.07,3.85.11,5.82.11s4,0,6-.14A88.52,88.52,0,0,1,49.94,72.12Zm20.3-22.48a90,90,0,0,1,3.34,8.76A88.82,88.82,0,0,1,64.29,60c1.06-1.67,2.07-3.36,3.06-5.07s2-3.49,2.89-5.27Zm-6.57,3.15q-2.27,3.93-4.78,7.71c-3,.21-6,.32-9.12.32s-6.11-.1-9-.29q-2.58-3.77-4.86-7.72t-4.25-8q2-4.08,4.23-8h0q2.26-3.93,4.83-7.69c3-.22,6-.34,9.06-.34s6.13.12,9.09.35q2.52,3.73,4.79,7.66t4.29,8q-2,4.11-4.27,8.06ZM72.44,5.3C75.77,7.22,77.07,15,75,25.14c-.13.67-.28,1.33-.44,2A102.44,102.44,0,0,0,61.22,25a98.78,98.78,0,0,0-8.42-10.5c.75-.72,1.51-1.42,2.29-2.1C62.44,6,69.31,3.5,72.44,5.3Z"/><path class="cls-1" d="M49.77,35.8a8.89,8.89,0,1,1-8.89,8.89,8.89,8.89,0,0,1,8.89-8.89"/></svg>