<svg id="Layer_1" data-name="Layer 1" xmlns="http://www.w3.org/2000/svg" viewBox="0 0 374.81 360.62"><defs><style>.cls-1{fill:#1a1a18;}</style></defs><path class="cls-1" d="M96.25,134.85c-.57-.92-1.15-1.87-1.69-2.91a12,12,0,0,1-.72-1.56,45.92,45.92,0,0,0-4.09,6.4c-5.6,11.06-8.21,23-8.8,35.33-.23,4.85.22,9.74.36,14.61h.6c.3-2.17.59-4.33.89-6.49a91.81,91.81,0,0,1,7.8-26.89c1.72-3.61,3.71-7.09,5.7-10.58-.43-1.83.11-3.61,1.23-5.76C97.15,136.3,96.71,135.59,96.25,134.85Zm-1.16-27.28-.8-1-.36-.46.71,1.76A3.94,3.94,0,0,1,95.09,107.57Zm251,122.09c.1-.73-1.49-1.48-2-1.76-.71-.34-1.49-.65-2.3-1a17.26,17.26,0,0,1-3.6,3.86C340.7,231.3,345.68,232.37,346.06,229.66Zm-35.32,63.22a19.49,19.49,0,0,0-2.7,4.9,27.94,27.94,0,0,1-4.41,6.47,19,19,0,0,1-3.19,2.92c-1.35,1-5.75,3.43-7.24,2.1a1.85,1.85,0,0,1,0-2.53c2.17-2.42,6.22-3,8.68-5.74a3.67,3.67,0,0,0,.81-4.2c-2.73-2.45-5.57-.07-7.94,1.47a34,34,0,0,1-4.18,2.45c-9.71,4.53-16.84,1.64-24.41-5.16-7.18-6.44-10.42-14.29-7.29-23.74a19.73,19.73,0,0,1,4.15-7.13c.25-.28.51-.55.77-.81-.56,0-1.13,0-1.69,0a13.88,13.88,0,0,1-6.38-1.33,9.21,9.21,0,0,1-5.88,2.22c-1.84,0-5-.63-7.81-4.34a21.47,21.47,0,0,1-3.3.34,6.61,6.61,0,0,1-4.37-1.41c-.58-.48-1.18-.55-2.74-.62a15.08,15.08,0,0,1-3.57-.45l-1.06-.25a11.11,11.11,0,0,1-6-2.91,14.67,14.67,0,0,0-7.9,4.07c2.54,2.71,9.74-4.16,10.67,2.48a106,106,0,0,1-29.57,5h-.25a9.14,9.14,0,0,1-4.17,1.7c4.56.84,9.12,1.69,13.7,2.39a68.86,68.86,0,0,0,20.27-.25l-12,5.16.49,1.05a52.81,52.81,0,0,0-5.86,2.16,95.76,95.76,0,0,1-39.26-5.38A93,93,0,0,1,145,262.23a7.15,7.15,0,0,1-2.28-.33,7.57,7.57,0,0,1-4-3.79c-3.56-.6-5.11-1.88-5.95-5.09a7.54,7.54,0,0,1-4.62-3.84,6.71,6.71,0,0,1-.64-2.71L127,246a5.21,5.21,0,0,1-3.74-2.3l-.35-.52a10.92,10.92,0,0,1-2-5,127.49,127.49,0,0,1-9.33-15.16,6.31,6.31,0,0,0,.17,2.25,105.09,105.09,0,0,0,8.48,21.78c5.42,10.07,12.3,18.89,21.49,25.84,9.54,7.21,20.23,11.41,32,13.51a84.58,84.58,0,0,0,14.36,1.32c.51,1.44,1.89,2.55,2.69,4.07-5.55,8.3-14.66,27.15-17.6,26.28-1-.29-.76-1.86-.55-2.57,1-3.52,4-6,5-9.56.15-.5.13-.83-.47-1-3.42-1-9.25,12.79-10.59,15.46s-7.82,16.06-11.44,15c-3.31-1-3.33-4.27-2.49-7.09a51.41,51.41,0,0,1,3.9-9.12c1.5-2.84,3.3-5.59,4.22-8.71.5-1.71,1.1-4.81-1.22-5.5-4-1.19-3.87,7.93-7.39,6.89-2.32-.68-.38-4.27-3.9-5.31-1.61-.47-2.44,1.58-2.79,2.78-1.94,6.54-.25,13.38-2.18,19.92-.39,1.31-1.09,2.19-2.6,1.75-6.83-2-5.59-18.06-5.28-23.55.42-8.41,1.56-16.71,2.17-25.06.08-1.34.53-5.55-.13-7.93l1,.52.3-.55c-2.63-2-5.32-4-7.87-6.06a97.71,97.71,0,0,1-13.57-13.72c-.23-.5-.53-1-.87-1.6.31-1.09.75-2.84-.07-3.8s-2.23-1-3.66-.82a98.88,98.88,0,0,1-5.94-9.82,96.33,96.33,0,0,1-8.27-22,17.85,17.85,0,0,0-.19-2.18A35,35,0,0,0,96.9,209c-.14-.86-.29-1.72-.42-2.59s-.24-1.78-.34-2.67a89.31,89.31,0,0,0,5.34,16.57,7,7,0,0,0,.5-4.94c-1.11-4.49-2.4-8.94-3.62-13.4l1.76-1.28,14.65,8.44,7-15.28-13,6.15-1.56-1.82c6.64-4.07,13.78-7.76,16.49-14.67l-.67-1-.49-.74a8.68,8.68,0,0,0-1-1.09,16.57,16.57,0,0,1-1.65-1.8c-.32-.41-.61-.83-.9-1.24L97,178.85c.18-1.06.39-2.12.61-3.18a9.63,9.63,0,0,0,1.55,0c8.82-1.12,10.45-3.91,7.63-12.56a2.8,2.8,0,0,1,.25-1.77,7.1,7.1,0,0,1-2.44-2.15l-1.61.34c.21-.64.43-1.28.66-1.93a14.38,14.38,0,0,1-1.34-6.84,2.23,2.23,0,0,0-.27-.63c-9.37,11.74-15.35,25-17,40.26a42.13,42.13,0,0,0-13.27-6.76c3.83-4.2,6.46-9.84,8.07-17.25,1.74-8.05-.07-18.55-6.19-24.44l1.09-1.47a11.79,11.79,0,0,0,2.46,3.37,7.29,7.29,0,0,0,3.64,1.77,2.28,2.28,0,0,0,.64-.55c2.9-3.18-.62-7.25-2.38-10-1-1.66-3.46-6-1.84-7.78a2,2,0,0,1,.72-.48l1.54,1.12c1.09,2.69,1.92,6.29,4.16,8.34,1.47,1.35,3.57,1.7,5,.15a2.93,2.93,0,0,0,.69-2.78c-2.65-11.09-18.08-17.51-19.62-31.84a5.46,5.46,0,0,1,1.1-2,2.43,2.43,0,0,1,1.37-.73,20.08,20.08,0,0,1,5.59,3.68c2.09,1.91,4,4,6.13,5.88s6.28,4.32,8.76,1.61c.1-.12.18-.25.27-.38s.12-.24.18-.34l.07-.1a3.65,3.65,0,0,0-1-4.13c-1.78-1.63-4.18-2.11-6-3.74-1.94-1.77,1.67-4.16-1.82-7.34a3.91,3.91,0,0,0-1.3-.91,10.87,10.87,0,0,0-3.8-.35c-5.12,0-11.68,1-15.79-2.77-1.47-1.34-3.77-4.58-2-6.52,1.42-1.54,4.29-1.9,6.24-1.54,4.26.62,11.31,5.65,14.57,8.62a58.81,58.81,0,0,1,5.65,6L88,96.39c-.08-.36-.16-.72-.26-1.08a4,4,0,0,1,.36-3.13,4,4,0,0,1,2.52-1.9,9.65,9.65,0,0,1,5.49.27c-.79-1.31-1.58-2.63-2.35-4a26.4,26.4,0,0,1-2.34-5.2l-.16,0c-.75-.26-1.51-.68-2.27-.94-1.2-.39-2.54-.48-3.82-.79-8.47-1.92-16.95-7.1-24.27-11.52-2.59-1.52-5.13-3.41-8-4.46-2.42-.93-3.56,0-5.43,1.43-1.12-.17-2.91-.39-3.76.54-1.62,1.78.31,5.11.62,7.1.43,3-1.46,7.19,1,9.45,1,.92,2.44-.33,3.38-.74,1.82.8,3.91,1,5.46,2.42a2.45,2.45,0,0,1,.55.64c3.79,15.8,7.87,31.84,15.19,46.45a3.17,3.17,0,0,0-.42,2.55,14.24,14.24,0,0,1-.06,5.5A15.94,15.94,0,0,0,66,137.79a13.36,13.36,0,0,0-3.47-.32,5.41,5.41,0,0,1-1.4,0c-3.79-.82-6-4.73-10-5.59-1.74-.38-6.55-1-7.08,1.47-.75,3.48.71,7.13-.05,10.61-1,4.82-6.25,7.55-7.14,11.65a3.34,3.34,0,0,0,2.52,3.77c5.63,1.22,6.51-6.32,9-9.53,1.94-2.48,5.61-4.58,8.79-3.89a13.18,13.18,0,0,1,6.36,3.21c-3.84,5-4,10.34-1.1,16.52,1.86-1.14,4.75-2,4.82-3.08a49.46,49.46,0,0,0-.1-6.7,21.18,21.18,0,0,1-.18,8.7c-1.53,7.08-6.94,15.67-15.34,13.85-4-.87-6.74-4.58-9.61-5.2a1.76,1.76,0,0,0-2.24,1.45c-.4,1.84,2.5,1.83,2.1,3.67-.45,2-2.79,2-4.43,1.62-5.33-1.16-16.54-8.85-19.14-13.7a29.42,29.42,0,0,1-2.25-6.93c-.38-1.69-1.19-6.37-3.14-6.8-.92-.2-1.39.46-1.56,1.28-1,4.71,2.94,11.15,2.34,13.92-.15.72-1,1.94-1.77,1.76-3.28-.71-5-10.43-5.26-13.37a43.62,43.62,0,0,1-.08-6.57c.09-1.91,1-10.51-1.47-11.05s-4,4.28-4.44,6.12C-.85,152,.11,164.83,4,171.25c5.86,9.8,14.48,15.9,24.82,19.31-10.59,7.53-14.41,17.35-12.13,32.1,1.69,10.88,10.87,23.57,23.2,21.66a12.68,12.68,0,0,0,3.36-.94,5.12,5.12,0,0,1,1.3-.52c3.83-.59,7.25,2.27,11.29,1.65,1.76-.27,6.46-1.43,6.08-3.91-.55-3.53-3.22-6.4-3.77-9.93-.75-4.87,3.13-9.29,2.49-13.43a3.32,3.32,0,0,0-3.7-2.61c-5.7.88-3.82,8.23-5,12.13-.91,3-3.59,6.28-6.8,6.78C35.77,235,30.56,228,29.26,219.65c-1.11-7.15.86-17.11,9.35-18.43,4-.62,7.93,1.85,10.83,1.4A1.76,1.76,0,0,0,51,200.47c-.29-1.87-3-.81-3.28-2.68-.32-2.07,1.9-2.84,3.55-3.09,5.39-.84,18.61,2.32,22.78,5.92a29,29,0,0,1,4.59,5.65c1,1.45,3.4,5.53,5.37,5.22.93-.14,1.13-.92,1-1.75-.73-4.76-6.75-9.35-7.18-12.15-.12-.72.19-2.15,1-2.28,1.7-.26,3.88,1.83,5.77,4.29.32,14.5,5.1,27.8,12.75,40.32a83,83,0,0,0,5.59,8,4.34,4.34,0,0,0-3.25.89c-1,.88,0,2.46.31,3.45C99,254,98.55,256,97,257.39a2.29,2.29,0,0,1-.71.46c-17.12,1.88-34.55,4-50.75,10.24-.85.3-1.7.76-2.54,1.06-2.84,1-6,1.52-8.4,3.56a7.27,7.27,0,0,0-2.21,3.39,2.29,2.29,0,0,0,.46.71c2.79,3.28,7.27.29,10.21-1.11,1.78-.82,6.39-2.68,8-.84a2,2,0,0,1,.39.77L50.05,277c-2.82.74-6.49,1.11-8.81,3.08-1.52,1.29-2.13,3.32-.77,4.92a2.93,2.93,0,0,0,2.67,1c11.33-1.23,19.65-15.74,34.06-15.46A5.71,5.71,0,0,1,79,271.93a2.48,2.48,0,0,1,.55,1.46,18.43,18.43,0,0,1-2,2.72,6.74,6.74,0,0,0-5.64-1c-4.93,1.17-2.1,3.89-.86,6.67-.84.66-1.68,1.33-2.49,2-2.24,1.9-5.08,5.69-2.7,8.48a3.52,3.52,0,0,0,5,.18c1.84-1.56,2.62-3.88,4.46-5.44,2-1.7,3.91,2.18,7.51-.88A4,4,0,0,0,83.92,285a10.41,10.41,0,0,0,.82-3.72c.64-5.09.51-11.72,4.74-15.32,1.52-1.29,5-3.16,6.72-1.16,1.36,1.59,1.35,4.49.75,6.38-1.16,4.15-7,10.52-10.39,13.37a54.64,54.64,0,0,1-12.63,8.12c-5.1,2.27-11.28,2.29-15.67,6a1.69,1.69,0,0,0,.07,1.87c.82,1,2.6,1,3.71,1.94-.62,2.18-4.46,2.69-2.15,5.4,1.63,1.92,3.82.61,5.34-.68,2.8-2.38,5.19-5.23,8-7.61,1.6-1.36,7.76-5.77,9.66-3.53a1,1,0,0,1,.3,1c-.23,2.81-11.24,12.85-13.23,17.15-.89,1.87-1.18,5.41.25,7.09,2,2.32,4.56-1.26,6.85,0a1.11,1.11,0,0,1-.11,1.33,1.07,1.07,0,0,0-.31.13c-.55,1.29-.83,2.91.19,4.1a2.77,2.77,0,0,0,3.79.09c7.67-6.52,9.16-17.56,12-26.71a32.63,32.63,0,0,1,2.18-5.7c.35-.71.86-1.42,1.21-2.13.54-1.15.8-2.47,1.27-3.69,3-8.17,9.18-15.92,14.48-22.64,1.3-1.69,2.78-3.33,4-5.11a90.35,90.35,0,0,0,9.39,6.81c3.15,2,6.48,3.71,9.8,5.45a7.06,7.06,0,0,0-1.56,3.1c-1.75,5.93-1,12.28-2.76,18.21-.39,1.31-1.18,3.59-3,3.06-1.3-.39-1.63-3.33-1.71-4.56a22.87,22.87,0,0,1,0-2.62c.07-4.68-.28-9.38-.08-14.13.13-1.93.91-8.26-1.6-9-2.11-.62-3.23,1.67-3.7,3.28-3.1,10.46,1.33,42.39,3.85,53.86a96.56,96.56,0,0,0,9.53,25.79c.21.39.56.71.41,1.21-.33,1.11-3.35.21-3.76,1.62a1.84,1.84,0,0,0,.24,1.39c3.27.42,6.6-.13,9.82.83,2.92.86,4.89,3.41,7.81,4.28.91.26,2.73.37,3.09-.84.69-2.31-5-4.11-4.27-6.62.65-2.21,8.77-5.61,10.95-6.71a33.94,33.94,0,0,0,5.31-3.14c7.93-5.74,16.34-17.9,21.16-26.43,2.74-4.89,5.71-9.72,8.05-14.8,1.43.68,3.39.89,4.67,2.35,1.92,2.06,4.22,9.15,5.05,12,.32,1.11.62,2.12.84,3.25,2.2,10.84,3.49,21.93,6.63,32.6.62,2.11,3.1,10.56,6.26,9.41a1.21,1.21,0,0,0,.63-.07c1.71-.5.71-3.93.36-5.13-.74-2.52-1.58-5-2.32-7.52-.45-1.51-1.88-6,.34-6.66,1.81-.53,2.75,2.69,3.11,3.9.86,2.92,1.41,5.92,2.27,8.84.35,1.21,1.26,4.66,3.07,4.13,4.32-1.27,2.34-8,1.46-11a118.57,118.57,0,0,0-8.06-19.61,8.52,8.52,0,0,1-.64-1.45c-.56-1.91.1-3.74,2.11-4.33,5.34-1.57,6.54,1,9.32,4.91,1.29,1.81,2.56,3.51,3.92,5.19a28,28,0,0,1,8.48,6.91,46.25,46.25,0,0,1,3.13,4.32c1.2,1.84,4.47,8.53,7.19,7.73,2.11-.62,2-3.75,1.49-5.36-2-6.94-11.45-12.92-12.69-17.15l-.09-.3c0-.23.15-.59.36-.65,1.1-.32,3.51,5.64,5.82,5,1.71-.51,1.79-2.49,1.37-3.9-2.13-7.25-13-14.54-19.43-17.79A15.22,15.22,0,0,0,224,309c-1.41-.35-2.78-.17-4.17-.41-4.35-.69-8.63-3.37-9.94-7.8s.24-10.34,4.22-12.82a16.62,16.62,0,0,1,4.25-1.9c6.23-1.84,10.79,2.51,12.47,8.24,1.6,5.44-2.13,11.34-1.3,14.16a2.64,2.64,0,0,0,2.13,1.67c5.3-1.67,5.92-5.13,6.56-10a29.2,29.2,0,0,0-.83-11.77,18.55,18.55,0,0,0-7.67-10.77q2.87-1.51,5.63-3.24c2.49-1.55,4.84-3.31,7.25-5a117.78,117.78,0,0,1-17.44,6.27,18.13,18.13,0,0,0-3-.51,14.44,14.44,0,0,0-1.74,0c4.33-2.12,8.71-4.27,13.19-6.45a45.31,45.31,0,0,0,9.26-3.34c1,.91.66,2.71.58,3.9a38.69,38.69,0,0,0-.49,8.86c1,10.79,7.39,18.77,15.11,25.71,12.87,11.56,25.81,17.4,42.74,10.33a35,35,0,0,0,8.75-5.81c2.31-2.58,9.38-13.28,6-16.29C314.19,290.76,311.86,291.63,310.74,292.88Zm-28-248-5-7.28L274,36.87c-1.14,4-2.27,8-3.4,12l10,.57ZM231.87,106.7l-13.56-6.08C219.71,105.89,227.4,109.38,231.87,106.7Zm-74.63,9.72a5.87,5.87,0,0,1,1.32-.15c3.37,0,5.17,2.7,6,4,1.33,2,2.59,4.06,3.8,6,.58,1,1.14,1.87,1.71,2.78,1.85,1.12,2.88,2.93,4.11,6.1,2.11,2.86,4.32,5.7,6.56,8.49-.22-.65-.47-1.29-.75-1.91-4.2-9-3.35-13.45,4.84-18.93a43.91,43.91,0,0,0,3.87-2.71c3.38-2.85,7.12-4.23,11.44-2.7,7.91,2.82,15.78,5.76,23.66,8.68,2.6,1,5.17,2,7.75,3,.22-.52.45-1.05.67-1.58-7.75-5-15.42-10-24.91-11.74-4.19-.78-9-2-12-4.75s-4.45-7.65-6.91-12.26l14,.67c-2.65-4-11.21-5.14-14.89-3-1.29-.4-2.56-.83-3.85-1.2a82.06,82.06,0,0,0-20.54-3.08,24,24,0,0,0-6.08.65c-.94.23-1.66,1.33-2.49,2,.73.57,1.4,1.52,2.2,1.64a52.74,52.74,0,0,0,7.53.62c1.6,0,3.2,0,4.8,0a107.2,107.2,0,0,0-19.36,6.2A68.3,68.3,0,0,0,157.24,116.42Zm29.42-19.21a2.8,2.8,0,0,0-.38.47c-2.05,3.33-5,5-7.36,1.69a8,8,0,0,0-2.13-2.17ZM347.84,235.1c-2.29-.33-4.76,0-7-.36-1-.15-5.7-.91-6.13-1.6a.91.91,0,0,1-.11-.22,22.84,22.84,0,0,1-4.56,1.36,42.13,42.13,0,0,1-8.39.8,58.17,58.17,0,0,1-7.32-.49l1.68.81a163,163,0,0,0,26,6c2.07.29,7.9-.48,8.27-3.08A3.34,3.34,0,0,0,347.84,235.1Zm27-56.46c-.42-2.06-2.4-1.76-3.94-1.45-4.83,1-9.28,3.28-14.11,4.26-2.16.44-5.29.86-6.86-1.07.1-1.09-.86-1.11-1.68-.94-1.34.27-2.61.85-4,1.12s-2.53.19-2.82-1.24c-.38-1.85.07-2.27,1.82-2.62,4.11-.84,8.45,0,12.57-.84.92-.19,2.54-.63,2.27-2,0-.1-.16-.29-.18-.39-1.78-3-2.3-2.85-5.59-2.72a38.66,38.66,0,0,0-6.9.76c-5.25,1.07-10.24,2.83-15.29,4.28-1.52.42-2.92.92-4.46,1.23a9.51,9.51,0,0,1-2.45.07c-1.83-.06-2,.09-2.8-1.68,1.16-2.7,8.37-8.33,11.06-9.84.76-.48,1.45-.73,2.21-1.2,3.72-2.25,6.28-6,9.54-8.89,4-3.49,8.6-6.67,13.84-7.74a11.83,11.83,0,0,1,2.71-.34c1.11.21,1.84,1.67,3,1.44,1.44-.3,1.68-2.27,1.43-3.5-.3-1.44-1-2.7-1.27-4.13-.79-3.91,2.12-6.43,1.76-8.17-.58-2.88-2.14-2.67-4.61-2.71-2.06-1.18-4.55-1.32-6.45-2.75-1.13.23-1.93.5-1.66,1.83.19.93.71,1.89.9,2.82.85,4.21-9.75,6.79-12.73,7.4a73.86,73.86,0,0,1-14.37,1.42,166.58,166.58,0,0,0-33.06,3.18c-2.06.42-7.3,3.09-6.77,5.66a3.33,3.33,0,0,0,3.33,2.21c2.26-.46,4.5-1.56,6.76-2,1-.2,5.68-1,6.32-.53a1.5,1.5,0,0,1,.53,1.07c.32,1.54-.9,1.89-2.13,2.14-1.85.38-8.61.79-8,3.87.15.72,1.9.9,2.45,1,7.1.7,17.69-1.45,24.78-2.89,3.9-.79,7.89-1.71,11.79-2.5.72-.15,2.88-.58,3.11.55.48,2.36-6.64,6.8-8.53,8a75.17,75.17,0,0,0-9.19,6.36c-4.62,4.15-9,11.14-15.45,12.45-2.77.56-5.48,0-8.24.42q-4.87-.37-9.76-.4c2.33-4.57,3-9.61,3.21-14.66.71-14.28-4-27.16-10.87-39.33-.33-.59-.67-1.16-1-1.73a2.72,2.72,0,0,0,1.49-.69c1.36-1.31.66-3.7-.5-4.91a19.7,19.7,0,0,0-4.69-3,27.46,27.46,0,0,1-6.14-4.86,19.38,19.38,0,0,1-2.68-3.39c-.94-1.43-3-6-1.57-7.37a1.84,1.84,0,0,1,2.52.19c2.26,2.35,2.55,6.43,5.1,9.07a3.66,3.66,0,0,0,4.13,1.12c2.64-2.55.47-5.55-.89-8a32.94,32.94,0,0,1-2.14-4.34c-3.82-10-.43-16.92,6.9-24,6.95-6.7,15-9.37,24.21-5.56a19.62,19.62,0,0,1,6.81,4.65c10.18,10.58,7,23.27-2.84,32.73-4.38,4.22-9.56,7.31-15.78,6.9a18.68,18.68,0,0,1-4.58-.83c-1.18-.32-6-2.63-6.87-1.83s-.21,3.7.66,4.61c2.18,2.27,8.94,2,10.68,3.83.73.76,1.23,1.88.4,2.68-1.13,1.09-5.47-1.14-7.43.75-1.29,1.24-.94,2.36.15,3.49a6.52,6.52,0,0,0,4.42,1.57c8.38.52,18-4.56,23.93-10.24a37,37,0,0,0,6.15-7.52c.84-1.39,1.85-3.82,3-4.91.38-.37.75-.29,1.11.09a3.31,3.31,0,0,1,.8,1.28A2.07,2.07,0,0,0,324,105c2.64-2.55,5-11.92,4.52-15.57-.26-1.78-.67-3.57-1.09-5.36-.74-3.65-1.34-7.44-3-10.81-.72-1.35-2.44-4.35-1.08-5.65.75-.73,1.31,1.21,2.14.41.08-.08.23-.22.23-.37a7.51,7.51,0,0,0-2.22-4.12A14.38,14.38,0,0,0,321.89,62a6.09,6.09,0,0,1-4.33-2.24,20.81,20.81,0,0,1-3.9-5.56,12.22,12.22,0,0,0-2.09-3.38c-.44-.45-2.62-2.42-3.3-1.76s1.28,2.54.15,3.63-2.75.47-3.94.3a39.52,39.52,0,0,0-8.8-1.13c-10.83.24-19.25,6-26.73,13.22-10.8,10.41-17.31,21.17-15.06,35.18-1.64-1.26-3.32-2.47-5.06-3.62-4.05-2.68-8.35-5-12.59-7.38,1.53-6.93-3-16.54-1.79-20.66l.09-.3c.15-.17.44-.42.64-.36,1.11.31,0,6.64,2.31,7.29,1.72.48,2.83-1.17,3.23-2.58,2-7.27-3.31-19.23-7-25.39a14.94,14.94,0,0,0-2.1-3c-1-1-2.27-1.62-3.31-2.56-3.33-2.9-5.54-7.44-4.29-11.88s5.69-8.64,10.37-8.64a17.06,17.06,0,0,1,4.62.65c6.26,1.75,7.81,7.85,6.2,13.61-1.53,5.45-7.83,8.48-8.62,11.3a2.64,2.64,0,0,0,.92,2.55c5.38,1.4,7.74-1.2,10.88-5a29.38,29.38,0,0,0,5.54-10.42c2.07-7.37.39-14.6-5.91-19.31-2.51-1.9-5.82-2.94-8.75-3.76-3.63-1-10.71-2.57-14.26-1.17a10.48,10.48,0,0,1-1.78-.28,9.12,9.12,0,0,1-3.82-2.57,9.06,9.06,0,0,1,4.71-1.41l-.72-1.52-7.64-.36-.21,1c-1.35.49-2.84,1.57-3.09,2.45-.51,1.82.52,4-.07,6.08s-2.87,3.23-3.46,5.35c-.74,2.62,2.71,3.92,3.18,6.89.53,2.76-1.28,10-2.07,12.81-.31,1.11-.6,2.12-1,3.2-3.88,10.35-8.68,20.44-11.68,31.14-.22.79-.69,2.45-1,4.26a65,65,0,0,0-17.79-.41c-4.53.55-9.11.89-13.59,1.74-.89.17-1.77.37-2.65.59.37-2.8,4.55-8.82,5.68-10.71a34,34,0,0,0,2.81-5.48c3.64-9.1,4.25-23.88,3.77-33.66-.43-8-.36-16.25-2.56-24-.45-1.61-1.61-5.32-3.93-4.66-3.33.94,1.85,35.77-2,36.86-1,.28-1.64-1.17-1.84-1.88-1-3.53.13-7.23-.87-10.76-.14-.51-.33-.78-.93-.61-3.43,1-1,15.76-.69,18.73s2,17.75-1.66,18.78c-3.33.94-5.1-1.83-5.9-4.65a52,52,0,0,1-1.57-9.8c-.25-3.2-.2-6.49-1.09-9.62-.48-1.71-1.64-4.65-4-4-4,1.15,1,8.78-2.57,9.78-2.32.66-2.6-3.41-6.13-2.41-1.61.46-1.22,2.64-.87,3.85,1.86,6.56,6.94,11.44,8.8,18,.37,1.31.26,2.43-1.26,2.86-6.86,2-14.38-12.28-17.05-17.08-4.14-7.33-7.61-15-11.55-22.34-.89-1.6-4-8-6.24-7.39-1.72.48-.92,3.31-.6,4.42,1.69,5.95,5.71,10.92,7.39,16.87.38,1.31.93,3.66-.88,4.18-1.32.37-3.17-1.94-3.89-2.94a22.73,22.73,0,0,1-1.39-2.22c-2.44-4-5.25-7.77-7.62-11.9-.92-1.7-3.64-7.47-6.17-6.76-2.11.6-1.83,3.14-1.38,4.76,2,7,11.82,20.16,20.63,30.69a4,4,0,0,1,2.59-.24,4,4,0,0,1,3,4c0,.92,0,1.83,0,2.74,1.47,1.65,2.84,3.15,4,4.42a33.32,33.32,0,0,1,1.55-3,11.72,11.72,0,0,1,1.35-1.95,5.78,5.78,0,0,1,1.77-1.31l.41-.22a4,4,0,0,1,5.78,4.83,29.83,29.83,0,0,0-1.92,10.1c1.75,1.47,3.55,2.87,5.4,4.22A4,4,0,0,1,145.05,82c1.63,1,3.28,2,5,3,.39.22.85.31,1,.81.31,1.11-2.71,2-2.31,3.38a1.81,1.81,0,0,0,.95,1c3-1.39,5.51-3.63,8.74-4.55,2.92-.82,6,.28,8.89-.55a4.39,4.39,0,0,0,1.58-.85c3.29,0,6.58.11,9.87.27a89,89,0,0,1,36.95,10.12,98.12,98.12,0,0,1,25.44,19L240,114.76l11.23,11.18c1,1.43,2,2.91,3,4.4l-9,1.75c4.12,2.63,6.19,5.61,2.8,9-3.61,3.62-6.66,1.73-8.42-1.75-5.43,4.93-2.7,10.93-2.1,16.73.06.58.28,1.29,0,1.75-.93,1.78-1.6,4.35-3.11,5.07-3.19,1.53-6.43,3.42-9.68,5.09,0,.43-.07.87-.11,1.29-.07.67-.13,1.31-.18,2a38.14,38.14,0,0,1,5.35-1.81c2.63-.68,5-2.44,7.58-3.24a6.81,6.81,0,0,1,4.84.16c15.05,8.5,18,11.54,17.9,25.1,1.25.25,2.48.56,3.7.93-.05-.29-.1-.57-.14-.85-1.83-10.37,2.22-18.06,10.32-24.22l1.86,5.1c.06,2.5.13,5,.25,7.5,0,.37.06.79.12,1.21a1.21,1.21,0,0,0-.17.46,1.82,1.82,0,0,0,.69,1.86l.09.22c.11,4,.06,7.9-.21,11.82l3.54-.32a85,85,0,0,0,.2-10.79c4.53.47,9.12-.05,13.64.58.46.07,1,.15,1.48.26a4.1,4.1,0,0,1,.61,1.5,8.28,8.28,0,0,1-.52,4.38,20.12,20.12,0,0,0-2.56-.56c-.94-.13-2.61-.26-2.8,1.09,0,.1.06.33,0,.43a14.26,14.26,0,0,0,.45,1.74c.73-.16,1.48-.34,2.25-.53,1.09-.27,2.21-.54,3.37-.77a16.45,16.45,0,0,1,2.78-.26l1,0a4,4,0,0,1,1.88.36,28.41,28.41,0,0,1,3.83-1.51,5.34,5.34,0,0,0,1.69,0,1.65,1.65,0,0,1,.18,1.07c-.26,1.87-.82,2.11-2.59,1.86a16.49,16.49,0,0,1-1.7-.34,4.09,4.09,0,0,1,.45.64,4,4,0,0,1-.13,4.11l1.41.14a49.17,49.17,0,0,0,17.9-8.66,4,4,0,0,1,6.27,4.21,24,24,0,0,1-3.31,7.38,5,5,0,0,1,.22,1.31,10.59,10.59,0,0,1-2.84,1.85,21,21,0,0,1-2.3,2c2.92-.44,5.88-1,8.94-1.57q3.41-.65,6.88-1.25a4,4,0,0,1,3.8,1.46,12.63,12.63,0,0,1,4.58-.25c3,.42,5.54,2.05,8.55,2.47a3.41,3.41,0,0,0,1.06,0,3.06,3.06,0,0,0,.33-.9c.31-2.18-2.73-3.14-2.28-6.36.5-3.53,4-5.26,4.46-8.37a2.05,2.05,0,0,0-1.55-2.55c-1.76-.25-3,2.23-4.44,3-1.14.58-4.86.69-6.23.6a7.68,7.68,0,0,0-2.65-.69,25.29,25.29,0,0,1-6.19-1.19l-2.06-.84a113.09,113.09,0,0,0,15.15-2.1A144.25,144.25,0,0,0,369,182.71C370.5,182.19,375.22,180.7,374.81,178.64ZM207.64,71.74c-.64,2.3-1.47,4.55-2.2,6.83-1.09-.29-2.2-.56-3.32-.8l-.32-.07c.48-1.82.94-3.64,1.45-5.45.43-1.52,1.6-6.09,3.82-5.46C208.89,67.3,208,70.53,207.64,71.74Zm19.2,16.58a68.84,68.84,0,0,0-15.55-7.91c.48-1.26.83-2.51,1.09-3.42A119,119,0,0,0,216,56.1a8.14,8.14,0,0,1,.22-1.57c.54-1.92,2.07-3.12,4.09-2.56,5.35,1.51,5,4.35,5.29,9.11.14,2.22.31,4.34.57,6.48a28.06,28.06,0,0,1,3.52,10.36,46.18,46.18,0,0,1,.36,5.33,42,42,0,0,0,.22,7.53Q228.58,89.51,226.84,88.32Zm35.73,46.32c-2.28-2.72-4-6-6.53-8.52l-1.26-1.26c-.94-2.51-2-5-3.11-7.39a72.81,72.81,0,0,0-18.14-24,5.5,5.5,0,0,0,2.35-3c2,1.5,3.93,3,5.81,4.59a96.68,96.68,0,0,1,30.25,45.71,72.14,72.14,0,0,1,3.22,14.81c0,.52.07,1.05.11,1.57A69.73,69.73,0,0,0,262.57,134.64Zm61.79,116.44h-1.24c-.69,0-1.39,0-2.08,0-.29.18-.59.36-.88.56q-.09,1.13-.15,2.25l10.93.28c0-.6,0-1.19,0-1.79l-6.51-.82Zm-18,7.72c-.29-.26-.59-.5-.88-.75a5.75,5.75,0,0,1-1.32-.18c-3-.79-5.87-1.83-8.66-2.83l-.48-.17A6,6,0,0,1,294,259a5.74,5.74,0,0,1-3.46,2.19,35.25,35.25,0,0,1,5.39,4c4.53,4.06,8,9,8,15.24a19.43,19.43,0,0,1-.49,4.63c-.24,1.2-2.2,6.21-1.34,7,1,.91,3.71-.05,4.55-1,2.11-2.34,1.38-9.06,3.06-10.93.7-.78,1.78-1.36,2.64-.59,1.17,1.05-.74,5.54,1.28,7.36,1.33,1.19,2.42.76,3.47-.41a6.53,6.53,0,0,0,1.25-4.52C318.25,273.54,312.48,264.27,306.39,258.8Zm-198-23c2.54-4.83-2.58-7.68-3.87-11.56C101.83,229.17,106.36,232.08,108.38,235.76Zm211.64,16,.14-.08v0ZM78,253.61l-6.29.71c-.34,1.73-.64,3.32-1.18,6.13C74.83,261.69,76,257.53,78,253.61ZM105.4,98.28a25.58,25.58,0,0,1,1.47,3.71c-2.89-1.39-5.11-3.07-7.48-4.47s-4.09-4.27-7.86-3.35c.43,1.42.51,3,1.27,4,2.39,3.29,5.07,6.39,7.57,9.61a13.11,13.11,0,0,1,1.18,2.44,10,10,0,0,1-2.37.45c-2.42-.14-3.49,1-2.35,3.14.93,1.72,2.48,3.1,3.75,4.64-4.62,2.09-.56,4.41.61,6.65a5.35,5.35,0,0,1-.9.5c-3.18.73-3.67,1.63-2.18,4.5,1,1.93,2.32,3.7,3.27,5.65a3.21,3.21,0,0,1,0,2.56c-1.73,3.16-1.74,3.78.75,6.27a26.36,26.36,0,0,1,3.13,3.12,5.45,5.45,0,0,1,1,3.32c-.21,2,.82,6,2.7,6.8,2.92,1.23,4.63,3.11,5,6.23,0,.37.49.69.75,1,1.79,2.33,3.6,4.64,5.35,7,1.05,1.43,1.93,3,3,4.4.85,1.1,2,2,2.8,3.1,2.26,3.4,4.28,6.77,8.22,8.81,3,1.54,5.27,4.28,8.29,6.84,0,0,0,.72,0,1.42-.08,1.67.94,2.49,2.29,2,1.88-.75,3.05.36,4.55.92,2.11.78,3.12,2.26,2.49,4.23-.69,2.13-2.67,1-4.13.89-6.06-.37-12.1-.9-18.16-1.12a7.16,7.16,0,0,0-4.35,1.5,4.8,4.8,0,0,0-1.5,3.56c0,.81,1.44,1.68,2.4,2.24a11.65,11.65,0,0,0,2.54.58,5.18,5.18,0,0,1,1.17.8c-.32.45-.56,1.14-1,1.29a31,31,0,0,1-3.83.94c-2.74.6-4,2.05-3.81,4.42.21,2.7,2.25,2.78,4.23,2.91,1.69.12,3.39.21,5.08.32.07.28.15.56.23.83-1.13.89-2.21,1.85-3.4,2.63-3.84,2.53-4.21,3.76-1.54,7.46.86,1.19.85,1.72-.06,2.83-1.76,2.12,0,4.08,1,5.73.43.67,2.27.59,3.46.59a14.91,14.91,0,0,0,3.14-.7c-3.2,5.13-2.19,7.57,2.89,8.24.56,4.2.64,4.28,4.86,4.67,1.13,1.54,1.78,3.36,2.91,3.74,1.38.45,3.16-.31,4.77-.55.4,2.63,2.22,4.43,4.76,3.95,2.17-.4,4.18-1.66,6.58-2.69-.33,1-.59,1.81-.86,2.59a2.77,2.77,0,0,0,1.63,3.7,6.39,6.39,0,0,0,8.54-3.25c.44-.95,1-1.83,1.55-2.73a5.25,5.25,0,0,1,.87,2.48c.31,1.49-.26,3.51,2.28,3.72,4.43.36,5.65-.18,6.58-2.94.4-1.19,1-2.33,1.79-4.17a22.57,22.57,0,0,1,1.25,2.69c1,3.49,1.68,4,4.8,3.66s4.23-1.52,4.33-4.82c0-1.41-.21-2.82-.16-4.22a17.72,17.72,0,0,1,.53-2.84,4.8,4.8,0,0,1,2.1,2c.82,1.34,1.32,3.08,2.49,3.93a6.83,6.83,0,0,0,4.49,1.07c1.75-.22,2.46-1.8,2.11-3.62a33,33,0,0,0-1.05-4.87c-1.4-3.85-3-7.62-4.45-11.47-.21-.57.19-1.36.31-2.05.67.44,1.58.73,2,1.34a38.67,38.67,0,0,1,1.9,4.3c3-.88,4.85.38,6.57,2.62.83,1.09,2.73,1.36,4.15,2,1.44,2.45,4.07,2.83,6.77,3.12.93.1,2.35,0,2.69.52,1.43,2.28,3.7,2.34,5.9,2.93,2.55.69,5.28-.27,7.84,1.86,1.33,1.1,4.52,0,7.16-.14,3.06,6,7.87,6,11.17,1,2.44,3,5.66,2.85,8.8,2.71a2.67,2.67,0,0,0,2-1.3c.7-1.84,1.69-1.22,2.92-.77a25.11,25.11,0,0,0,5.25,1.5c1.9.24,3.74-.13,4.05-2.65.21-1.74,1-1.74,2.57-1.14a28.82,28.82,0,0,0,7.32,1.79c2.53.26,3.39-1,2.62-3.42a9.58,9.58,0,0,0-1.86-3,29,29,0,0,0-2.94-2.65c3.12-1.16,5,1.05,7.32,1.83,4,1.35,7.86,2.91,11.9,4,1.16.31,2.7-.75,4.06-1.18-.68-1.11-1.13-2.51-2.09-3.28-2.95-2.37-6.1-4.49-9.17-6.71l.21-.8a27.79,27.79,0,0,1,4.95.57c4.09,1.25,8,3.07,12.18,4,3.09.7,6.4.46,9.61.45.56,0,1.12-.93,1.68-1.43-.45-.45-.81-1.06-1.35-1.33-1.94-1-3.95-1.86-5.91-2.81-7.46-3.6-14.91-7.22-23-11.12,3.95-2.25,7.29-1.78,10.53-1.11,7.38,1.53,14.76,2.58,22.25,1.09,3.8-.76,7.32-2.2,9.93-6.72-7.28,0-13.94.39-20.54-.11s-13.28-1.36-19.35-4.74a3.83,3.83,0,0,1,2.52-1c3.06.18,6.16,1,9.17.69a100.64,100.64,0,0,0,16.34-2.53,15.06,15.06,0,0,0,10.3-8.2c-7.48,1.27-14.58,2.9-21.76,3.58s-14.62.8-22.24-1.24c6.87-1.24,13.3-1.75,19.26-3.67A18.35,18.35,0,0,0,325.45,193c-13.2,9.93-27.95,12.65-43.91,9.95a73.85,73.85,0,0,1,9.86-2.08c4.87-.63,6.65-1.4,9-4.71a26.38,26.38,0,0,0-3.29.23c-2.78.56-5.53,1.42-8.34,1.8-4.9.65-9.83,1.12-14.76,1.5-2.71.2-5.63.77-7.61-2-.22-.3-.74-.4-1.14-.56a35,35,0,0,0-15-2.38,16.31,16.31,0,0,1-6.48-.68c-6.66-2.56-13.19-5.43-19.74-8.28a3.74,3.74,0,0,1-2.07-1.9,39.94,39.94,0,0,1-1.7-8.71c-.13-3.7.61-7.42.68-11.14.09-5,2.44-9,4.79-13.13,1.27-2.22,2.69-4.36,4.28-6.92-4.26.3-6.81,2.8-9.73,4.61-1.59,1-3.4,2.08-5.17,2.19a11.06,11.06,0,0,0-6.85,2.88c-3.34,2.93-6.67,5.88-10.12,8.68-2.66,2.16-4.17,2.09-6.66-.24a66.21,66.21,0,0,1-6-6.28c-5.07-6.19-10.19-12.35-14.91-18.79-3.4-4.63-6.13-9.75-9.31-14.54-1-1.44-2.19-3.25-4.47-1.47-.24.2-1.22-.09-1.48-.44-6.5-8.73-11.45-18.16-12.91-29.14-.37-2.8-.79-5.59-1.19-8.38l-.74.09c-1.65,6.64.34,13,1.88,19.45-8.58-11.76-14.43-24.1-8.84-39.22a5.82,5.82,0,0,0-1.22.75,7.24,7.24,0,0,0-.88,1.3c-4.37,7.5-4.34,15.12-.85,23,1.11,2.49,3,4.89,2,8.58-9.3-11.25-14.71-23.33-14.23-37.81a22.58,22.58,0,0,0-2.12,6.13c-1.32,8.06.68,15.46,4.72,22.44a41.64,41.64,0,0,1,1.9,4.38l-1,.62c-1.07-1.07-2.21-2.07-3.18-3.22-6.21-7.32-10-15.85-12.65-25a10.77,10.77,0,0,0-1-2c-1.29,9.75,1.17,18.39,6.36,26.35a19.51,19.51,0,0,1,1.51,3.93l-.79.3C105,87.65,101.2,79.39,95,72.37c-1.21,5,.16,8.69,2.19,12.22C99.85,89.2,102.71,93.69,105.4,98.28Z"/></svg>